<?xml version="1.0" standalone="no"?>
<!DOCTYPE svg PUBLIC "-//W3C//DTD SVG 20010904//EN"
 "http://www.w3.org/TR/2001/REC-SVG-20010904/DTD/svg10.dtd">
<svg version="1.0" xmlns="http://www.w3.org/2000/svg"
 width="1932.000000pt" height="1150.000000pt" viewBox="0 0 1932.000000 1150.000000"
 preserveAspectRatio="xMidYMid meet">

<g transform="translate(0.000000,1150.000000) scale(0.100000,-0.100000)"
fill="#000000" stroke="none">
<path d="M6985 9879 c-126 -3 -349 -10 -495 -15 -304 -10 -536 -11 -905 -4
-241 5 -277 3 -490 -23 -519 -63 -834 -111 -821 -124 2 -2 64 3 137 12 356 42
472 52 754 60 224 7 460 -4 635 -30 119 -18 324 -69 388 -96 51 -22 75 -24 50
-5 -31 23 -20 24 55 6 98 -24 237 -72 232 -80 -5 -8 39 -30 60 -30 7 0 16 -6
19 -12 4 -7 5 -4 3 7 -3 15 2 20 18 20 22 0 22 -1 5 -23 -25 -32 -15 -62 64
-186 187 -294 496 -893 751 -1458 l139 -308 36 5 c19 2 105 6 190 9 147 4 151
4 80 -8 -41 -6 -81 -15 -87 -19 -8 -5 -13 -3 -13 4 0 9 -3 9 -14 0 -7 -6 -22
-8 -31 -4 -12 4 -16 3 -12 -4 4 -7 -5 -14 -22 -18 -35 -7 -55 -29 -48 -49 7
-19 90 -44 187 -57 70 -9 143 -22 300 -54 36 -7 92 -16 125 -20 33 -3 85 -12
115 -20 62 -15 174 -35 237 -41 23 -2 98 -15 167 -29 69 -14 140 -25 158 -25
18 0 57 -9 86 -20 29 -11 67 -20 85 -20 17 0 39 -5 47 -10 11 -8 9 -9 -10 -5
-14 3 -81 7 -147 8 -67 1 -114 5 -105 8 9 4 -28 7 -83 8 -55 0 -174 6 -265 12
-188 13 -785 6 -865 -11 -27 -6 -84 -15 -126 -20 -74 -9 -141 -28 -109 -30 26
-1 -10 -17 -60 -25 l-45 -8 30 -10 c17 -5 256 -10 545 -11 399 -2 550 -6 671
-19 313 -33 506 -67 745 -128 64 -16 126 -27 138 -24 15 5 17 4 8 -3 -11 -7
-8 -11 11 -16 14 -3 33 -8 44 -11 10 -3 5 1 -12 9 -17 9 -23 15 -14 16 9 0 28
-9 43 -21 17 -14 33 -18 48 -14 16 4 19 3 10 -3 -10 -7 -1 -12 31 -20 24 -7
53 -14 63 -18 12 -3 9 1 -6 10 l-25 16 25 -4 c14 -3 34 -5 45 -6 19 -1 19 -1
2 -14 -16 -13 -16 -15 13 -24 18 -7 28 -7 25 -2 -4 6 5 10 18 10 33 0 87 -20
87 -32 0 -5 10 -6 21 -3 15 5 19 4 14 -4 -5 -8 2 -10 22 -6 22 5 25 4 13 -5
-12 -8 -7 -9 21 -4 26 4 39 2 45 -8 8 -13 83 -33 163 -43 19 -2 89 -23 157
-45 68 -22 131 -40 139 -40 9 0 34 -9 56 -20 22 -12 44 -18 49 -15 5 3 28 -1
52 -9 75 -25 250 -66 280 -66 16 0 43 -6 61 -13 18 -8 70 -19 117 -26 47 -7
99 -17 115 -22 17 -6 64 -17 105 -24 41 -8 95 -19 120 -25 25 -6 61 -14 80
-16 19 -3 85 -12 146 -20 60 -8 117 -12 126 -9 9 4 18 0 21 -9 4 -9 13 -16 21
-16 9 0 13 6 10 14 -3 7 2 20 10 29 14 13 13 16 -10 21 -13 4 -33 15 -43 25
-11 11 -50 33 -88 51 -107 50 -118 55 -123 60 -3 3 -25 12 -50 21 -25 9 -94
38 -155 64 -60 26 -145 60 -188 76 -43 16 -95 36 -115 45 -20 8 -52 22 -70 30
-18 8 -39 14 -47 14 -8 0 -15 4 -15 9 0 4 -27 14 -60 21 -67 14 -84 39 -22 32
20 -3 39 -8 42 -12 6 -8 338 -32 518 -37 98 -3 122 -7 122 -19 0 -11 23 -14
123 -16 245 -3 314 -6 411 -15 54 -6 101 -15 105 -20 9 -16 102 -25 139 -14
18 5 30 6 27 1 -7 -11 49 -30 89 -30 17 -1 56 -7 86 -15 30 -7 66 -17 80 -20
l25 -6 -25 15 c-35 22 -13 19 35 -4 22 -11 43 -19 47 -20 4 0 33 -12 63 -26
41 -20 53 -29 43 -36 -9 -6 -6 -7 9 -3 16 4 65 -16 170 -69 194 -99 361 -189
453 -245 8 -5 47 -29 85 -52 243 -147 503 -334 685 -493 194 -169 211 -180 49
-30 -243 224 -472 394 -812 602 -81 50 -144 92 -140 94 5 3 2 3 -5 1 -19 -4
-72 29 -65 40 3 6 1 7 -5 3 -14 -9 -83 25 -75 37 3 6 1 7 -5 3 -6 -3 -26 3
-44 15 -28 18 -29 20 -8 14 30 -8 43 -9 98 -7 32 2 42 6 42 19 0 14 12 15 118
8 64 -5 171 -7 237 -6 66 2 193 0 283 -4 128 -6 162 -10 162 -21 0 -8 7 -14
15 -14 8 0 15 4 15 9 0 20 70 33 136 26 42 -5 69 -4 73 3 8 13 161 28 161 15
0 -13 392 -16 400 -3 5 8 48 8 146 0 76 -6 199 -15 273 -21 102 -7 136 -7 142
2 5 9 33 9 119 -1 88 -10 114 -10 120 -1 5 9 33 11 101 7 236 -15 379 -17 379
-7 0 14 93 14 107 0 8 -8 17 -7 32 3 17 10 25 10 42 0 13 -8 25 -10 32 -4 7 6
35 6 67 1 88 -12 120 -11 120 6 0 11 12 15 49 15 26 0 62 5 80 11 27 9 31 16
31 45 0 33 1 34 40 34 22 0 40 5 40 10 0 6 -7 10 -15 10 -8 0 -15 4 -15 10 0
5 -11 12 -25 16 -14 3 -25 10 -25 14 0 4 -17 11 -37 15 -21 3 -56 14 -78 24
-22 10 -66 26 -99 36 -32 11 -64 25 -71 32 -7 7 -42 15 -77 18 -84 8 -140 24
-154 43 -7 10 -19 13 -34 9 -13 -3 -35 0 -50 8 -15 8 -37 11 -50 8 -15 -4 -21
-2 -17 4 4 6 -16 12 -53 16 -69 6 -93 17 -64 28 16 7 15 8 -6 7 -26 -2 -38 0
-195 32 -49 10 -124 21 -165 25 -41 4 -84 12 -94 17 -27 14 -189 38 -259 38
-33 0 -73 6 -90 14 -18 8 -48 17 -67 19 -19 3 -53 10 -75 16 -22 6 -63 11 -91
11 -28 0 -75 4 -105 9 -30 5 -110 15 -179 22 -69 6 -136 16 -150 21 -30 11
-282 36 -500 48 -91 5 -187 14 -215 19 -27 5 -57 9 -65 9 -42 0 -323 24 -375
33 -33 5 -78 9 -100 8 -72 -3 -329 12 -360 20 -16 5 -39 9 -50 9 -58 -1 -312
15 -390 23 -49 5 -151 12 -225 15 -74 3 -193 11 -265 19 -119 13 -304 28 -495
39 -41 3 -91 8 -110 11 -26 5 -31 4 -20 -4 8 -6 10 -11 5 -11 -6 0 -16 5 -23
12 -7 7 -41 10 -89 9 -43 0 -139 6 -213 15 -74 10 -171 17 -215 16 -51 -1 -71
2 -55 7 16 5 -35 10 -135 15 -88 4 -178 9 -200 10 -22 1 -121 4 -220 6 l-180
3 270 8 c525 15 913 30 1150 45 132 8 339 17 460 19 601 13 1269 74 1930 178
182 28 357 52 390 54 33 1 66 2 73 2 7 1 -5 19 -28 42 -22 22 -40 42 -40 45 0
2 16 19 36 37 l36 32 -16 41 -17 40 -79 -20 c-65 -17 -82 -18 -92 -8 -11 11
-10 12 5 6 13 -5 16 -2 11 10 -3 9 -2 16 4 16 6 0 12 -5 14 -12 3 -9 6 -9 12
0 4 7 2 12 -3 12 -6 0 -11 7 -11 15 0 8 -4 15 -10 15 -6 0 -6 9 0 25 8 22 6
27 -13 36 -12 5 -31 15 -42 22 -81 49 -140 80 -163 87 -15 4 -26 12 -25 18 1
5 -7 8 -19 4 -14 -3 -19 -1 -14 6 4 8 2 10 -8 6 -8 -3 -27 1 -43 9 -15 8 -34
12 -40 10 -7 -3 -43 19 -80 47 -524 401 -1144 819 -1518 1022 -105 57 -335
168 -349 168 -3 0 -10 -9 -16 -19 -9 -18 22 -42 308 -242 174 -122 385 -272
467 -332 83 -61 170 -125 195 -143 90 -65 580 -434 701 -528 315 -244 477
-371 476 -372 -1 -1 -36 -4 -77 -7 -44 -3 -67 -2 -55 3 15 7 16 9 4 9 -26 1
-70 27 -61 36 4 5 1 5 -6 1 -9 -5 -19 0 -28 13 -8 12 -22 21 -31 21 -11 0 -14
7 -11 25 3 14 1 28 -5 32 -5 3 -7 1 -3 -5 16 -26 -15 -19 -51 10 -61 52 -148
140 -146 148 1 4 -10 13 -25 21 -14 8 -34 21 -43 30 -9 9 -25 22 -35 28 -17 9
-17 12 -4 21 8 5 10 10 5 10 -6 0 -16 -5 -22 -11 -8 -8 -13 -6 -17 8 -3 10
-20 24 -37 32 -23 10 -28 16 -18 22 11 7 11 9 -2 9 -16 0 -38 17 -127 100 -27
25 -54 45 -60 46 -28 2 -32 5 -29 16 1 6 -14 22 -33 34 -19 13 -41 28 -48 34
-7 6 -17 8 -22 5 -5 -3 -7 0 -5 7 3 8 -8 22 -27 33 -18 10 -37 23 -43 27 -5 5
-39 31 -75 59 -36 27 -72 56 -80 63 -9 7 -24 15 -33 19 -9 3 -17 11 -17 17 0
5 -7 10 -16 10 -14 0 -15 2 -3 17 13 15 12 15 -5 6 -16 -9 -27 -4 -63 23 -26
20 -50 31 -61 28 -13 -5 -14 -4 -3 4 15 11 -2 27 -19 17 -5 -3 -10 -1 -10 5 0
11 -30 47 -37 43 -8 -4 -43 11 -43 19 0 6 -7 8 -14 5 -10 -4 -13 -1 -9 9 3 8
2 14 -3 12 -14 -4 -85 48 -76 57 4 5 2 5 -5 1 -14 -8 -66 16 -96 45 -12 10
-27 19 -34 19 -7 0 -13 5 -13 10 0 6 -12 15 -27 21 -16 6 -68 34 -118 62 -93
54 -179 100 -305 162 -88 43 -140 67 -282 129 -18 8 -50 20 -70 26 -53 16 -47
29 10 23 34 -4 44 -2 36 6 -11 12 -254 33 -574 51 -744 40 -2151 40 -2955 0
-537 -27 -1014 -69 -1093 -97 -12 -4 -14 -3 -7 5 16 17 143 39 295 52 74 6
185 15 245 20 122 10 374 25 685 41 329 16 1911 23 2340 10 334 -10 737 -31
904 -46 85 -7 64 3 -50 25 -55 11 -119 24 -144 29 -25 5 -64 12 -85 15 -22 3
-101 15 -175 26 -175 27 -547 71 -710 84 -36 3 -117 10 -180 16 -212 18 -244
21 -455 30 -844 40 -1680 50 -2360 29z m4765 -379 c8 -5 12 -11 9 -14 -3 -3
-14 1 -25 9 -21 16 -8 20 16 5z m-2086 -846 c3 -8 2 -12 -4 -9 -6 3 -10 10
-10 16 0 14 7 11 14 -7z m66 -153 c-1 -13 -29 45 -29 59 0 8 6 0 14 -19 8 -18
15 -36 15 -40z m-306 43 c3 -8 2 -12 -4 -9 -6 3 -10 10 -10 16 0 14 7 11 14
-7z m27 -51 c13 -16 12 -17 -3 -4 -10 7 -18 15 -18 17 0 8 8 3 21 -13z m293
-19 c3 -8 2 -12 -4 -9 -6 3 -10 10 -10 16 0 14 7 11 14 -7z m-223 -36 c27 -17
49 -33 49 -35 0 -5 -64 28 -70 37 -3 4 -14 12 -25 18 -11 6 -16 12 -11 12 4 0
30 -14 57 -32z m99 -53 c14 -8 21 -14 15 -14 -5 0 -21 6 -35 14 -14 8 -20 14
-15 14 6 0 21 -6 35 -14z m151 -8 c-10 -9 -11 -8 -5 6 3 10 9 15 12 12 3 -3 0
-11 -7 -18z m-51 -42 c36 -19 61 -35 57 -35 -11 0 -127 59 -127 65 0 8 3 7 70
-30z m70 15 c0 -5 -4 -10 -10 -10 -5 0 -10 5 -10 10 0 6 5 10 10 10 6 0 10 -4
10 -10z m13 -40 c3 -11 4 -20 3 -20 -1 0 -9 9 -19 20 -13 15 -14 20 -3 20 7 0
16 -9 19 -20z m687 -64 c0 -2 -11 -11 -24 -20 -19 -12 -27 -13 -32 -3 -4 6 -4
9 1 5 4 -4 14 -1 22 7 13 14 33 20 33 11z m63 -23 c-7 -2 -19 -2 -25 0 -7 3
-2 5 12 5 14 0 19 -2 13 -5z m2787 -18 c11 -13 10 -14 -4 -9 -9 3 -16 10 -16
15 0 13 6 11 20 -6z m-2507 -2 c-7 -2 -19 -2 -25 0 -7 3 -2 5 12 5 14 0 19 -2
13 -5z m214 -19 c-3 -3 -12 -4 -19 -1 -8 3 -5 6 6 6 11 1 17 -2 13 -5z m-2864
-561 c-7 -2 -19 -2 -25 0 -7 3 -2 5 12 5 14 0 19 -2 13 -5z m-186 -9 c-3 -3
-12 -4 -19 -1 -8 3 -5 6 6 6 11 1 17 -2 13 -5z m66 -1 c-7 -2 -21 -2 -30 0
-10 3 -4 5 12 5 17 0 24 -2 18 -5z m1467 -53 c-8 -5 -19 -10 -25 -10 -5 0 -3
5 5 10 8 5 20 10 25 10 6 0 3 -5 -5 -10z m-73 -26 c-3 -3 -12 -4 -19 -1 -8 3
-5 6 6 6 11 1 17 -2 13 -5z m-50 -10 c-3 -3 -12 -4 -19 -1 -8 3 -5 6 6 6 11 1
17 -2 13 -5z m150 -490 c-3 -3 -12 -4 -19 -1 -8 3 -5 6 6 6 11 1 17 -2 13 -5z
m180 -30 c-3 -3 -12 -4 -19 -1 -8 3 -5 6 6 6 11 1 17 -2 13 -5z m56 -11 c-7
-2 -19 -2 -25 0 -7 3 -2 5 12 5 14 0 19 -2 13 -5z m50 -10 c-7 -2 -19 -2 -25
0 -7 3 -2 5 12 5 14 0 19 -2 13 -5z m70 -10 c-7 -2 -19 -2 -25 0 -7 3 -2 5 12
5 14 0 19 -2 13 -5z m50 -10 c-7 -2 -19 -2 -25 0 -7 3 -2 5 12 5 14 0 19 -2
13 -5z m160 -22 c179 -31 221 -35 212 -20 -6 9 -3 10 11 5 10 -4 41 -15 67
-23 73 -22 49 -28 -50 -13 -131 19 -391 68 -370 69 10 1 68 -8 130 -18z m-328
-71 c-3 -5 -14 -10 -23 -10 -15 0 -15 2 -2 10 20 13 33 13 25 0z m2795 -146
c0 -2 -9 -4 -20 -4 -11 0 -20 4 -20 9 0 5 9 7 20 4 11 -3 20 -7 20 -9z"/>
<path d="M4805 9589 c-461 -34 -885 -114 -1060 -198 -127 -62 -292 -199 -585
-486 -365 -358 -666 -683 -648 -700 2 -2 148 -22 323 -45 448 -57 705 -91 980
-130 469 -67 865 -125 1034 -150 107 -17 195 -30 197 -30 1 0 0 -9 -3 -20 -7
-25 19 -56 68 -80 77 -40 505 -106 876 -136 117 -10 210 -20 207 -23 -2 -3
-21 -4 -42 -3 -29 1 -33 -1 -17 -8 15 -6 16 -9 4 -9 -9 -1 -16 -7 -17 -13 -6
-44 -8 -188 -3 -196 3 -5 18 -12 33 -15 15 -4 33 -13 40 -20 15 -15 156 -21
173 -7 5 5 28 10 50 12 33 2 40 7 38 23 -1 19 0 19 17 -2 10 -13 21 -23 24
-23 4 0 2 10 -4 23 -6 12 3 5 20 -15 35 -42 52 -45 192 -32 l67 7 35 57 c20
32 36 61 36 64 0 11 -131 220 -153 243 -11 12 -36 28 -56 34 -46 15 -62 28
-60 48 5 54 15 51 -203 51 -192 0 -546 11 -796 26 l-113 6 -39 58 c-48 71 -98
114 -184 160 -76 40 -87 38 -123 -26 -30 -55 -28 -62 9 -28 l31 29 -23 -35
-23 -35 33 30 c32 29 33 20 1 -20 -16 -20 -16 -20 7 -1 23 20 31 10 10 -14 -7
-8 -3 -6 10 5 14 11 18 21 12 25 -7 5 -6 11 5 20 13 11 14 10 8 -6 -6 -17 -5
-18 13 -4 15 11 16 11 7 0 -18 -20 -16 -33 3 -26 9 3 -3 -16 -26 -44 -23 -27
-44 -50 -46 -50 -9 0 14 35 35 54 12 11 21 23 21 29 0 5 -18 -10 -41 -34 -34
-36 -38 -39 -24 -14 14 26 11 25 -20 -10 -20 -22 -32 -30 -26 -18 17 33 13 38
-10 12 -19 -23 -20 -23 -14 -3 7 27 38 21 -555 105 -245 34 -449 65 -453 69
-10 8 93 321 103 315 5 -3 6 3 4 12 -2 10 5 36 15 58 19 39 19 39 18 10 -2
-28 1 -30 36 -33 29 -3 43 2 56 17 10 12 22 21 25 21 4 0 27 16 52 36 59 49
74 42 74 -37 0 -52 2 -60 14 -50 12 10 17 8 27 -11 7 -13 12 -25 11 -28 -1 -3
6 -5 17 -6 10 -1 23 -4 29 -8 6 -4 17 2 24 13 11 18 13 18 25 3 11 -16 12 -16
13 1 0 20 1 21 32 4 18 -9 66 -12 157 -11 72 1 131 -2 131 -6 0 -5 9 -6 21 -3
11 3 37 31 57 62 45 70 44 68 49 54 7 -19 30 -16 54 8 l21 21 -7 -41 c-8 -48
4 -54 24 -11 l13 31 26 -28 c22 -24 38 -30 111 -39 145 -20 223 -34 276 -50
27 -9 79 -18 115 -20 36 -3 69 -9 74 -14 5 -5 17 -5 28 1 11 6 18 6 18 0 0
-14 58 -31 111 -31 26 0 49 -4 51 -10 3 -9 44 -18 92 -19 15 -1 16 -4 6 -16
-14 -17 -7 -19 38 -6 37 11 43 5 10 -9 -19 -7 -15 -9 22 -9 25 -1 59 3 76 8
17 5 56 5 90 0 198 -30 254 -44 250 -62 -1 -7 -1 -9 1 -4 3 4 14 7 25 7 14 0
18 -5 14 -17 -3 -10 -12 -47 -21 -83 -9 -36 -21 -82 -26 -103 l-10 -38 -47 39
c-103 85 -266 173 -412 223 -63 21 -69 21 -240 9 -211 -14 -429 -47 -465 -69
-5 -3 -30 -11 -55 -18 l-45 -12 50 6 c28 3 60 10 73 14 16 6 21 5 17 -1 -5 -8
9 -9 42 -4 27 3 123 1 214 -6 90 -7 187 -14 214 -15 28 -1 84 -7 125 -13 99
-15 202 -25 272 -27 32 -1 61 -5 65 -10 5 -4 0 -5 -10 -2 -11 4 -16 3 -12 -4
4 -5 15 -7 25 -4 26 8 142 -78 225 -167 59 -64 263 -356 281 -401 3 -9 11 -17
16 -17 6 0 8 6 5 14 -10 26 16 66 43 66 46 0 190 -23 190 -31 0 -17 -143 -316
-165 -344 -13 -16 -42 -50 -64 -75 -23 -24 -41 -53 -41 -64 0 -10 -20 -40 -44
-66 -37 -39 -50 -65 -76 -146 -64 -204 -115 -523 -127 -785 -5 -124 -3 -153
11 -189 9 -23 13 -47 10 -53 -4 -7 -3 -9 1 -4 5 4 15 -7 23 -25 12 -28 14
-137 13 -688 0 -360 3 -711 8 -780 8 -119 7 -131 -20 -245 -16 -66 -29 -122
-29 -126 0 -4 29 -12 66 -19 62 -12 66 -11 89 10 15 14 27 41 33 78 l11 57 -3
-64 c-1 -39 -7 -66 -14 -69 -7 -2 -12 -11 -12 -19 0 -13 3 -13 15 -3 13 11 14
8 9 -17 -4 -21 2 -45 20 -81 14 -28 26 -60 26 -71 0 -17 -3 -19 -22 -11 -45
19 -210 62 -215 56 -3 -3 -12 2 -19 12 -12 15 -13 14 -15 -13 -1 -29 -1 -29
-8 -5 -5 18 -18 28 -49 37 -24 6 -50 9 -59 6 -10 -4 -14 -2 -10 4 4 7 -11 13
-41 18 -50 7 -227 51 -252 62 -8 4 -19 7 -25 8 -5 0 -19 6 -30 12 -30 16 -208
75 -400 131 -438 130 -838 249 -1030 307 -115 35 -250 76 -300 91 -162 48
-407 125 -587 185 -102 34 -185 56 -195 52 -10 -3 -15 -2 -10 2 4 5 -55 30
-130 57 -76 26 -143 50 -150 52 -9 4 -8 18 3 58 7 29 14 57 14 62 0 21 -10 -3
-24 -56 l-15 -57 55 -103 c49 -91 135 -224 211 -328 l25 -35 -31 35 c-45 50
-172 242 -217 329 -42 79 -72 121 -87 121 -10 0 -259 98 -407 161 -41 17 -100
42 -130 54 -30 13 -93 39 -139 59 -46 20 -86 34 -89 32 -5 -6 42 -26 59 -26 6
0 7 -4 4 -10 -3 -5 0 -7 7 -5 8 3 40 -8 71 -25 31 -16 65 -30 74 -31 10 0 3
-5 -14 -10 -18 -5 -33 -14 -33 -19 0 -5 15 -3 34 5 30 13 39 13 68 1 l33 -15
-45 3 -45 3 3 -83 c2 -55 0 -84 -7 -84 -15 0 -14 -47 1 -52 10 -4 10 -10 0
-32 -6 -15 -12 -38 -12 -51 0 -21 -5 -25 -30 -25 -28 0 -30 -2 -30 -40 0 -29
4 -40 15 -40 11 0 15 -11 15 -40 0 -36 -2 -40 -25 -40 -14 0 -25 -4 -25 -10 0
-10 5 -12 33 -14 13 -1 27 -16 27 -28 0 -13 -38 -9 -43 5 -2 6 -8 9 -12 5 -14
-13 58 -67 95 -72 19 -3 57 -8 83 -12 26 -3 46 -8 44 -10 -2 -2 -64 3 -138 12
-179 21 -265 15 -358 -26 -40 -17 -74 -30 -75 -28 -2 2 -11 46 -21 98 -19 97
-34 144 -35 105 0 -31 -20 -3 -23 32 -1 17 -5 29 -10 26 -4 -2 -7 4 -7 13 0
14 -3 15 -12 6 -10 -10 -10 -15 -1 -20 6 -4 14 -29 18 -57 l8 -50 -20 25 c-21
25 -31 71 -93 415 -186 1021 -363 1528 -635 1814 -66 69 -101 96 -161 127 -71
36 -84 39 -158 39 -106 -1 -158 -25 -251 -119 -186 -188 -295 -576 -295 -1055
0 -85 -2 -152 -4 -150 -2 2 -7 58 -11 124 -4 66 -9 122 -11 124 -8 8 -4 -196
6 -314 6 -66 19 -187 30 -269 11 -82 20 -187 20 -232 0 -213 54 -564 116 -753
75 -230 203 -479 294 -571 85 -86 245 -161 442 -207 55 -13 126 -17 288 -19
l215 -1 185 -57 c452 -140 417 -129 710 -208 323 -86 447 -118 790 -199 860
-205 2477 -563 3674 -814 l410 -86 53 -47 c107 -94 140 -115 268 -177 577
-279 1166 -323 1660 -126 67 27 74 28 175 20 568 -43 1499 -79 2575 -100 676
-13 2643 -7 3085 10 622 23 1059 49 1310 76 420 46 625 136 712 313 29 59 33
76 33 152 0 75 -4 93 -31 150 -17 36 -50 86 -73 112 -44 49 -183 147 -211 149
-8 0 46 11 120 24 357 61 963 177 1025 196 181 54 417 208 486 317 35 55 39
117 11 153 -22 29 -45 115 -35 132 3 7 -9 -3 -28 -21 -74 -72 -367 -220 -452
-229 -76 -7 -325 62 -402 113 l-26 17 31 19 c17 10 35 16 41 13 20 -13 130
153 145 218 4 22 10 27 22 21 10 -4 49 -12 87 -17 l70 -10 115 57 c113 57 217
124 254 165 20 22 19 47 -4 155 -7 35 -7 68 1 113 6 35 8 74 5 86 -3 13 -1 73
4 133 6 60 15 165 20 234 6 69 12 148 15 175 2 28 5 163 6 300 1 138 5 228 9
200 l6 -50 8 38 c5 22 4 88 -3 157 -6 65 -11 138 -11 161 0 27 -10 63 -26 95
-27 54 -80 122 -70 91 4 -11 2 -16 -5 -12 -6 4 -8 13 -5 21 3 8 1 22 -4 32 -5
9 -30 71 -56 137 -26 66 -66 158 -89 205 -66 131 -125 203 -125 153 0 -29 23
-83 36 -83 15 0 24 -23 24 -63 0 -18 9 -64 20 -102 33 -112 60 -253 67 -345
l6 -86 -54 -48 c-49 -44 -143 -106 -161 -106 -16 0 -7 17 15 29 22 11 22 11
-3 6 -24 -6 -24 -5 -6 9 17 14 18 16 3 16 -10 0 -17 8 -17 18 0 14 2 15 10 2
8 -13 11 -13 19 -1 12 19 6 46 -10 45 -8 -1 -26 -5 -40 -9 -30 -7 -34 -2 -44
67 -6 38 -4 46 11 52 9 4 20 3 23 -1 5 -8 26 -9 34 -3 1 1 10 3 20 5 40 7 28
15 -22 15 -43 0 -52 3 -47 15 4 12 0 14 -17 10 -21 -6 -24 1 -52 110 -16 64
-33 121 -37 128 -4 7 -35 -16 -90 -68 -46 -43 -92 -87 -103 -97 -19 -17 -19
-18 7 -45 14 -16 78 -100 143 -188 65 -88 121 -163 125 -168 9 -10 112 12 105
23 -3 4 5 10 16 13 12 3 19 10 16 14 -3 5 8 18 26 28 18 10 42 27 54 37 12 11
26 17 32 14 5 -4 13 -1 17 5 5 8 3 9 -6 4 -9 -6 -11 -4 -6 4 5 7 15 10 23 7 8
-3 12 -2 9 2 -3 5 16 31 41 57 25 27 54 66 63 88 l17 38 35 -43 c50 -61 61
-85 54 -123 -15 -79 -169 -230 -306 -301 -33 -17 -57 -33 -54 -36 3 -4 -1 -6
-8 -5 -42 1 -43 0 -45 -106 -3 -183 -86 -682 -174 -1047 -101 -417 -169 -559
-302 -626 -196 -100 -1502 -276 -2512 -339 -465 -29 -572 -17 -680 73 -25 20
-31 22 -33 9 -4 -17 -40 -28 -100 -29 -49 0 -65 -9 -56 -32 7 -19 73 -59 127
-76 l38 -12 -113 -75 c-228 -150 -411 -223 -559 -223 -27 0 -49 -4 -49 -9 0
-5 -37 -12 -82 -16 -46 -4 -96 -9 -113 -11 -74 -8 -643 -35 -980 -45 -437 -13
-449 -14 -465 -24 -7 -5 -11 -4 -7 1 3 5 -9 8 -26 7 -64 -3 -104 -4 -187 -4
-47 -1 -167 -1 -267 -2 -108 -1 -179 2 -175 7 3 6 -3 6 -14 2 -10 -4 -57 -7
-104 -5 -47 1 -144 3 -217 3 -72 1 -129 4 -127 8 2 4 -10 6 -28 6 -18 0 -83 3
-144 7 -114 8 -228 0 -219 -15 3 -5 0 -12 -6 -16 -8 -5 -9 -3 -5 5 6 9 -7 11
-53 7 -77 -7 -111 -16 -111 -28 0 -6 13 -8 32 -4 19 4 28 3 23 -2 -6 -5 -84
-15 -175 -21 -191 -14 -429 -39 -481 -50 -22 -5 -70 -3 -127 7 l-91 15 -10 48
c-6 26 -17 135 -26 241 -32 414 -47 581 -70 777 -13 112 -26 205 -28 207 -2 3
-7 -73 -10 -168 -13 -368 -100 -693 -258 -970 -148 -258 -368 -464 -589 -551
-129 -51 -186 -61 -335 -60 -157 0 -234 16 -374 76 -125 54 -351 213 -336 237
6 9 -13 25 -29 25 -34 0 -270 321 -270 366 0 10 -4 15 -8 13 -4 -3 -21 23 -36
58 -64 139 -76 166 -104 233 -36 87 -90 313 -120 505 -18 116 -22 186 -22 355
0 209 7 273 49 475 8 41 17 84 19 95 6 31 44 151 79 247 21 59 34 84 40 75 6
-8 7 -6 3 7 -12 35 154 324 177 309 6 -3 7 -1 3 6 -8 13 12 44 23 36 4 -2 8 2
8 10 0 20 56 84 70 80 7 -2 10 1 7 8 -6 18 105 114 208 179 173 110 334 154
532 145 354 -15 675 -229 928 -618 20 -31 53 -88 72 -128 20 -39 38 -71 41
-71 13 0 -94 254 -175 417 -37 73 -63 133 -59 133 4 0 67 -9 141 -20 73 -10
320 -35 548 -55 550 -48 702 -63 780 -74 88 -13 314 -28 685 -46 171 -8 353
-17 405 -20 83 -5 676 -34 1043 -52 70 -3 127 -9 127 -12 0 -3 45 -5 100 -5
62 1 100 -2 100 -8 0 -7 18 -8 49 -4 27 3 61 2 75 -4 20 -7 25 -7 20 1 -4 8 3
9 22 6 16 -3 140 -9 277 -13 260 -7 277 -4 277 37 0 11 -37 58 -82 106 -73 76
-89 101 -35 55 25 -22 21 -10 -8 24 -14 16 -32 48 -41 70 -14 38 -14 44 0 73
13 23 13 31 4 31 -7 0 1 9 17 19 25 16 57 20 180 25 143 5 454 -5 578 -20 38
-4 57 -3 57 4 0 6 -10 13 -22 15 -20 4 24 0 59 -5 15 -2 18 5 -99 -189 -52
-85 -123 -211 -158 -281 -76 -150 -76 -158 -35 -373 96 -509 248 -1064 353
-1300 36 -79 123 -169 183 -187 61 -18 442 -15 724 6 402 29 1074 99 1375 142
312 45 379 55 425 64 28 5 75 12 105 16 30 3 62 9 70 14 8 4 44 12 80 19 199
36 296 72 341 127 13 16 12 17 -20 11 -18 -4 -40 -7 -47 -7 -8 0 -14 -7 -14
-15 0 -8 6 -15 13 -15 9 0 9 -2 -1 -9 -7 -4 -25 -6 -39 -3 -16 3 -24 1 -20 -5
4 -6 -4 -15 -18 -21 -18 -9 -26 -8 -36 4 -18 22 17 45 61 40 19 -3 27 -2 18 0
-21 6 -24 24 -4 24 8 0 16 7 20 15 3 8 1 15 -4 15 -5 0 -24 10 -43 23 l-34 23
43 47 c57 63 98 137 134 240 113 326 244 865 290 1195 8 61 7 79 -5 106 -23
49 -203 254 -309 352 -52 48 -93 91 -90 95 2 4 -1 11 -7 15 -8 4 -9 3 -5 -4 4
-7 2 -10 -6 -7 -8 3 -14 15 -15 26 -2 17 3 20 23 16 13 -2 27 0 30 4 3 5 20 9
37 9 18 0 39 5 47 10 22 15 -10 13 -501 -20 -244 -17 -545 -37 -669 -45 -124
-8 -286 -19 -360 -25 -74 -5 -263 -19 -420 -30 -331 -24 -693 -50 -1125 -81
-339 -25 -292 -27 -675 32 -1365 211 -3610 476 -3775 445 -86 -16 -95 -76 -41
-263 44 -151 164 -453 194 -485 8 -10 12 -18 8 -18 -10 0 -439 37 -761 65
-154 14 -355 34 -446 47 l-166 21 -41 66 c-112 182 -286 377 -431 487 -438
329 -909 268 -1251 -161 l-50 -63 -102 23 c-57 13 -150 36 -208 52 -58 17
-154 40 -213 54 -106 23 -109 24 -125 59 -15 30 -26 38 -80 55 l-64 20 7 110
c22 367 58 591 132 820 30 94 45 115 79 109 13 -2 34 1 46 7 26 14 228 21 228
8 0 -10 33 -12 43 -3 4 4 50 8 104 9 54 2 90 0 81 -3 -10 -4 51 -7 135 -7 271
0 1332 -17 1339 -21 6 -4 114 -5 248 -3 76 1 91 -1 86 -10 -4 -5 39 -8 99 -7
58 0 106 -2 108 -6 1 -4 23 -9 49 -11 26 -1 50 -6 54 -10 4 -4 23 -7 43 -6
l36 1 -30 9 c-236 76 -585 137 -965 169 -161 13 -810 14 -1010 0 -323 -21
-577 -41 -618 -46 l-43 -6 7 28 c3 16 30 54 59 84 58 61 62 67 169 293 54 114
81 160 96 164 11 3 20 8 20 10 0 10 -208 488 -313 718 -113 249 -275 578 -340
690 -109 188 -223 323 -338 398 -132 86 -331 149 -574 182 -142 20 -635 28
-820 14z m-5 -809 c0 -5 -2 -10 -4 -10 -3 0 -8 5 -11 10 -3 6 -1 10 4 10 6 0
11 -4 11 -10z m1462 -39 c7 11 9 9 5 -8 -8 -36 15 -47 69 -34 29 7 73 9 114 5
60 -6 69 -4 79 12 9 16 10 13 5 -16 l-5 -35 20 43 c33 70 30 48 -8 -58 l-36
-100 -80 -1 c-44 0 -90 -2 -101 -4 -19 -4 -25 7 -57 103 -47 140 -50 154 -31
113 12 -28 18 -32 26 -20z m-1169 -26 c-8 -27 -25 -81 -37 -119 l-22 -70 -64
0 -63 -1 -54 114 c-29 63 -51 116 -48 119 3 3 5 0 5 -7 0 -7 5 -9 10 -6 6 3
10 1 10 -6 0 -8 13 -10 44 -6 23 4 60 2 81 -4 25 -7 40 -7 44 -1 3 6 25 9 48
9 43 -2 60 12 47 36 -5 8 -3 9 4 2 8 -7 7 -24 -5 -60z m-1459 -17 c-3 -11 -2
-18 2 -15 5 3 43 8 83 11 42 4 78 12 83 19 4 6 8 9 8 6 0 -6 -10 -33 -65 -184
l-15 -40 -102 -1 c-57 0 -118 -3 -135 -7 -27 -5 -35 -3 -43 14 -10 17 -4 28
37 77 92 109 96 113 107 102 17 -17 27 -11 16 10 -9 16 -8 19 7 13 13 -5 15
-3 10 11 -4 10 -3 15 4 11 5 -4 7 -16 3 -27z m-684 -248 c25 -25 14 -27 -13
-2 -19 16 -20 16 -14 0 3 -10 -4 -31 -17 -50 -20 -30 -20 -34 -5 -34 9 0 15 5
13 11 -2 5 0 15 4 21 8 14 162 30 162 18 0 -15 601 -11 627 4 13 7 35 10 50 6
21 -4 24 -3 13 5 -11 8 -8 10 15 10 17 0 39 2 50 3 16 2 19 -2 17 -24 l-3 -28
118 0 c138 0 167 6 158 29 -5 12 -3 13 5 5 8 -8 2 -40 -24 -120 -19 -60 -43
-138 -52 -172 l-18 -64 -40 7 c-113 17 -874 117 -1071 140 -222 25 -208 11
-118 116 43 50 87 101 97 115 24 29 21 29 46 4z m1203 0 c-3 -12 -8 -19 -11
-16 -5 6 5 36 12 36 2 0 2 -9 -1 -20z m-1433 -44 c0 -2 -8 -10 -17 -17 -16
-13 -17 -12 -4 4 13 16 21 21 21 13z m2511 -463 c-39 -53 -48 -63 -55 -63 -4
0 9 20 30 45 40 49 58 62 25 18z m37 7 c-7 -10 -14 -17 -17 -15 -4 4 18 35 25
35 2 0 -1 -9 -8 -20z m1806 -315 c4 -11 -2 -15 -22 -14 -17 1 -20 3 -9 6 9 2
17 9 17 14 0 14 7 11 14 -6z m-242 -663 c3 -11 0 -19 -8 -19 -16 0 -16 0 -8
21 8 21 11 20 16 -2z m-5675 -498 c-3 -3 -12 -4 -19 -1 -8 3 -5 6 6 6 11 1 17
-2 13 -5z m109 -30 c18 -14 18 -14 -6 -3 -31 14 -36 19 -24 19 6 0 19 -7 30
-16z m-148 -16 c6 -6 42 -19 79 -28 48 -12 67 -21 65 -31 -2 -8 -5 -26 -7 -41
-2 -14 -8 -35 -13 -45 -23 -43 -60 -361 -45 -388 7 -12 12 12 16 87 6 98 31
256 58 361 l12 49 19 -45 c12 -27 30 -49 45 -56 28 -13 28 2 4 -182 -13 -101
-4 -478 13 -549 l14 -55 1 41 c1 26 8 47 20 58 10 9 21 36 23 59 3 24 17 61
31 84 14 22 23 44 20 47 -4 3 1 6 10 6 9 0 24 13 33 30 13 22 21 27 30 19 7
-6 17 -8 23 -5 21 13 22 -35 2 -69 -39 -67 -51 -119 -41 -178 10 -51 9 -57
-32 -143 -36 -77 -42 -99 -44 -164 -2 -41 0 -68 3 -60 2 8 6 21 9 28 3 9 10 7
26 -8 21 -19 50 -35 151 -79 l47 -21 0 -69 c0 -37 -3 -95 -6 -128 l-7 -61
-103 -7 c-91 -6 -104 -9 -104 -25 0 -22 11 -26 83 -35 50 -6 56 -5 66 14 12
21 51 30 51 11 0 -6 -13 -23 -29 -38 l-30 -27 14 -65 c24 -107 18 -193 -11
-170 -7 7 -10 18 -7 26 3 9 0 12 -9 9 -9 -4 -15 0 -15 8 0 22 -24 77 -34 77
-4 0 -11 17 -15 38 -4 20 -11 43 -17 50 -5 6 -6 12 -2 12 4 0 1 7 -6 16 -13
15 -11 17 19 12 17 -2 32 -1 32 2 0 8 -71 22 -77 16 -15 -15 94 -321 128 -363
6 -6 6 -14 1 -16 -4 -3 -32 48 -61 114 -70 159 -125 321 -91 269 5 -8 10 -10
10 -5 0 14 -13 30 -27 32 -16 4 -16 -11 -2 -57 19 -63 41 -372 29 -420 -11
-43 -36 -36 -61 19 -12 28 -26 48 -31 45 -4 -3 -8 2 -8 10 0 8 5 18 10 21 15
10 12 25 -4 19 -11 -4 -13 0 -9 15 3 12 11 21 18 21 7 0 18 7 25 15 10 12 6
22 -19 57 -17 23 -32 53 -32 67 -1 15 -8 -5 -15 -44 -13 -65 -13 -75 6 -138
12 -37 25 -65 30 -62 5 3 7 -1 4 -9 -6 -16 44 -114 99 -194 16 -24 26 -46 23
-49 -16 -16 -149 235 -169 318 -7 27 -14 49 -17 49 -14 0 -19 -546 -6 -632 6
-35 4 -39 -34 -64 -22 -14 -46 -24 -53 -21 -16 6 -43 179 -62 394 -11 129 -13
138 -14 68 -1 -75 11 -222 25 -307 5 -34 4 -37 -23 -41 l-28 -4 32 -13 c32
-14 43 -34 43 -82 0 -22 -5 -28 -22 -30 -47 -3 -84 3 -120 19 -30 13 -38 22
-38 42 0 47 29 194 73 369 24 95 40 175 36 179 -4 5 10 47 31 96 21 48 37 87
35 87 -10 0 -78 -115 -94 -160 -31 -83 -70 -261 -69 -311 0 -24 -7 -82 -16
-129 -8 -47 -16 -87 -16 -90 0 -2 -22 18 -50 45 -63 62 -65 51 -3 -18 26 -29
35 -41 19 -27 -48 41 -75 74 -82 97 -9 32 14 232 43 373 14 69 29 142 33 163
6 28 4 37 -6 37 -8 0 -14 3 -14 6 0 10 166 200 252 289 54 56 78 87 78 105 0
46 -10 51 -73 32 -32 -9 -58 -21 -59 -27 -1 -17 -11 -39 -23 -51 -13 -13 -140
-55 -157 -52 -9 2 -12 -6 -10 -24 1 -16 -2 -28 -8 -28 -5 0 -10 -5 -10 -10 0
-6 -8 -23 -19 -38 -10 -15 -36 -55 -57 -89 -40 -64 -67 -87 -39 -33 17 33 20
54 5 45 -6 -4 -8 -9 -6 -13 2 -4 -3 -16 -11 -27 -15 -19 -15 -19 -9 5 7 24 7
24 -9 5 -8 -11 -13 -25 -11 -32 3 -7 1 -13 -4 -13 -6 0 -10 -4 -10 -10 0 -16
67 -12 74 5 7 20 48 4 52 -20 2 -10 5 -29 8 -41 5 -18 -1 -25 -32 -39 -20 -10
-41 -23 -45 -29 -4 -6 -5 1 -1 17 5 23 4 26 -12 20 -12 -4 -15 -3 -10 5 4 7 2
12 -4 12 -6 0 -8 5 -5 10 3 6 0 10 -7 11 -7 0 -4 4 7 9 19 8 19 9 -2 9 -27 1
-27 3 -8 -78 17 -68 17 -68 -34 -123 -14 -16 -28 -28 -32 -28 -7 0 -49 164
-49 193 0 9 18 24 40 33 46 20 60 52 40 88 -11 21 -7 32 35 102 72 120 107
163 140 174 l30 9 -30 -2 c-23 -2 -30 2 -29 15 1 13 -8 19 -35 23 -49 8 -158
44 -203 66 l-38 19 0 144 0 143 47 7 c25 3 49 4 51 1 3 -3 -6 -5 -19 -6 -13 0
9 -9 50 -20 73 -19 107 -19 60 0 -13 5 -18 10 -11 10 7 1 10 6 7 11 -4 6 13
10 43 10 35 0 52 5 55 15 4 8 2 17 -2 20 -16 9 -146 25 -213 25 -38 0 -68 3
-68 8 0 53 61 387 73 398 2 3 19 -35 36 -83 39 -107 71 -183 86 -202 5 -7 22
-37 36 -65 15 -30 33 -52 45 -55 18 -3 18 -2 3 15 -30 34 -106 186 -154 307
l-47 119 26 83 c15 46 30 86 34 89 4 2 23 -18 42 -45 l34 -50 -16 -60 -16 -59
33 0 c26 0 35 5 41 22 7 22 7 22 31 -6 29 -34 26 -49 -14 -57 -27 -5 -30 -4
-25 14 4 16 2 19 -12 14 -10 -4 -26 -7 -35 -7 -15 0 -17 -8 -13 -54 3 -36 0
-56 -8 -61 -9 -6 -11 -4 -5 6 6 11 5 11 -5 2 -10 -9 0 -34 47 -125 48 -92 64
-114 84 -116 13 -2 20 1 14 5 -12 9 -15 27 -21 113 -5 66 -23 119 -34 100 -3
-5 -6 6 -6 25 0 18 4 31 8 29 4 -3 8 -10 8 -16 0 -12 99 -189 123 -220 7 -9
39 -28 71 -42 32 -14 55 -30 51 -36 -3 -5 -2 -10 3 -10 5 0 26 -16 46 -35 45
-42 57 -43 73 -9 12 25 8 33 -65 128 -100 129 -161 219 -174 256 -6 19 -17 30
-29 30 -10 0 -19 4 -19 8 0 5 -25 42 -57 83 -31 41 -76 104 -100 141 l-44 67
30 58 c16 32 37 67 46 78 8 11 0 -12 -20 -51 -40 -82 -41 -87 -18 -82 10 2 18
12 18 23 0 11 7 20 15 20 8 1 14 7 12 14 -2 8 3 11 13 8 9 -4 15 -1 15 8 0 9
6 12 17 8 12 -5 15 -2 11 9 -4 8 -1 15 7 15 7 0 11 -6 8 -14 -3 -7 -1 -19 5
-26 5 -6 12 -50 15 -98 6 -100 26 -209 38 -209 12 0 12 0 -6 115 -8 54 -18
163 -21 242 -8 160 -4 168 49 108 21 -24 39 -35 58 -35 21 0 28 -6 32 -30 4
-16 4 -36 1 -44 -15 -38 56 -347 92 -403 7 -12 27 -56 44 -97 31 -80 117 -256
124 -256 3 0 -14 39 -36 88 -125 270 -184 498 -222 860 -5 53 5 67 32 40z
m237 -48 c10 -11 16 -20 13 -20 -3 0 -13 9 -23 20 -10 11 -16 20 -13 20 3 0
13 -9 23 -20z m56 -67 c13 -16 12 -17 -3 -4 -17 13 -22 21 -14 21 2 0 10 -8
17 -17z m-341 -11 c0 -11 -8 -18 -20 -19 -25 -2 -25 6 -2 23 22 17 22 17 22
-4z m340 -37 c0 -7 7 -15 15 -19 8 -3 15 -11 15 -18 0 -9 -3 -9 -11 2 -9 13
-10 13 -6 0 2 -8 10 -14 16 -13 15 4 74 -114 61 -122 -6 -3 -10 -38 -10 -77 0
-62 -3 -74 -29 -107 -16 -20 -45 -65 -65 -101 l-36 -65 0 120 c0 114 13 306
26 388 5 34 24 44 24 12z m31 8 c13 -16 12 -17 -3 -4 -17 13 -22 21 -14 21 2
0 10 -8 17 -17z m49 -88 c0 -5 -9 5 -20 23 -26 42 -26 56 0 17 11 -16 20 -34
20 -40z m40 -80 c0 -5 -5 -3 -10 5 -5 8 -10 20 -10 25 0 6 5 3 10 -5 5 -8 10
-19 10 -25z m44 -115 c5 -17 4 -20 -2 -10 -5 8 -13 26 -16 40 -5 17 -4 20 2
10 5 -8 13 -26 16 -40z m35 -110 c0 -9 -4 -8 -9 5 -5 11 -9 27 -9 35 0 9 4 8
9 -5 5 -11 9 -27 9 -35z m45 -187 c31 -161 50 -324 43 -369 -4 -21 -2 -34 5
-34 15 0 3 -446 -16 -583 -18 -130 -37 -229 -43 -223 -2 2 3 41 11 87 39 210
63 699 35 699 -7 0 -9 -16 -5 -45 4 -25 4 -45 1 -45 -11 0 -110 53 -157 84
-27 17 -48 38 -48 47 0 20 28 89 36 89 3 0 4 -6 1 -12 -17 -48 -18 -58 -3 -58
9 0 16 6 16 13 0 8 4 7 10 -3 6 -9 10 -10 10 -3 0 6 -4 15 -10 18 -5 3 -10 13
-10 21 0 8 5 12 10 9 6 -4 10 6 10 21 0 15 10 39 23 52 12 14 16 22 10 18 -9
-5 -11 -2 -7 8 3 9 11 13 16 10 6 -4 7 2 3 16 -4 13 -3 20 2 17 5 -3 15 8 22
24 7 17 18 28 25 26 12 -4 15 -89 4 -152 -4 -22 -4 -32 -2 -22 12 40 33 10 35
-51 1 -26 3 -30 6 -13 9 46 -20 247 -71 496 -6 26 -5 27 3 8 6 -13 21 -80 35
-150z m5292 41 c98 -26 211 -54 249 -64 39 -10 96 -24 127 -30 l57 -11 -33
-52 c-141 -220 -244 -560 -291 -957 -39 -322 -24 -956 29 -1235 3 -16 -3 -5
-13 25 -10 30 -16 60 -14 65 3 6 -3 1 -13 -10 -13 -16 -16 -17 -11 -3 3 10 2
20 -3 23 -5 3 -11 -3 -13 -12 -3 -11 -5 -6 -7 12 -1 26 -3 27 -10 10 -7 -17
-9 -15 -9 12 -1 43 -21 53 -22 11 l0 -33 -13 35 c-46 123 -81 694 -66 1062 17
400 19 442 26 492 4 34 3 47 -5 42 -6 -4 -11 -22 -11 -41 0 -19 -6 -35 -14
-38 -8 -3 -18 -26 -21 -51 -4 -24 -13 -47 -21 -50 -12 -5 -12 -9 -2 -25 10
-16 9 -23 -5 -39 -9 -10 -17 -23 -17 -28 0 -5 5 -2 11 6 9 12 9 11 4 -5 -4
-11 -9 -34 -10 -52 -2 -17 -6 -41 -10 -53 -4 -12 -1 -28 7 -37 7 -9 8 -14 2
-10 -8 5 -11 -7 -9 -40 1 -26 0 -56 -4 -67 -12 -43 -16 49 -11 229 3 99 5 304
4 455 -1 259 -2 282 -27 390 -15 63 -27 116 -27 118 0 5 26 0 196 -44z m-5336
-68 c-6 -15 -9 -5 -8 34 0 50 1 52 8 21 5 -19 4 -44 0 -55z m9632 47 c8 -7 19
-9 23 -5 5 4 5 1 1 -5 -4 -8 -1 -13 8 -13 18 0 27 -14 35 -53 9 -45 41 -52
476 -110 86 -11 88 -12 45 -18 -25 -4 -72 -2 -105 3 -33 5 -67 7 -77 5 -9 -3
-19 0 -21 6 -4 13 -37 2 -37 -12 0 -6 16 -9 36 -7 34 2 56 -8 33 -16 -9 -3 -9
-16 0 -53 6 -28 9 -60 7 -73 -3 -12 -1 -20 3 -18 4 3 19 -6 31 -19 l23 -25
-24 0 c-13 1 -55 5 -94 11 -38 6 -88 12 -109 14 -53 5 -66 11 -66 31 0 17 -92
114 -108 114 -5 0 -15 -13 -21 -28 -29 -69 -266 -113 -524 -97 -91 5 -121 11
-137 25 -12 10 -55 27 -96 36 -43 10 -74 23 -74 30 0 10 18 8 71 -7 40 -11 80
-24 90 -29 26 -15 33 -12 18 7 -10 11 -14 48 -14 130 0 109 1 116 24 134 13
10 18 19 11 19 -7 0 -25 -11 -42 -25 -31 -26 -72 -32 -98 -14 -12 8 -10 9 7 4
15 -4 37 2 65 19 45 26 169 51 219 44 15 -3 25 0 22 5 -9 14 381 5 399 -10z
m1028 -63 c3 -1 11 -3 19 -4 17 -1 28 -26 12 -26 -6 0 -11 6 -11 13 0 9 -3 8
-9 -2 -7 -11 -11 -10 -20 5 -6 12 -11 14 -11 5 0 -11 -3 -11 -15 -1 -11 9 -15
9 -15 1 0 -7 -4 -9 -10 -6 -20 12 -9 22 23 20 17 -2 34 -4 37 -5z m-498 -15
c13 -3 29 -13 36 -22 12 -16 10 -18 -17 -21 -17 -2 -67 4 -113 12 -202 37
-218 48 -56 41 70 -3 137 -8 150 -10z m58 -5 c0 -5 -2 -10 -4 -10 -3 0 -8 5
-11 10 -3 6 -1 10 4 10 6 0 11 -4 11 -10z m780 -69 c14 -8 32 -17 40 -21 44
-20 60 -164 27 -242 -13 -32 -23 -39 -68 -52 -29 -9 -58 -16 -65 -16 -7 0 -14
-5 -16 -11 -6 -18 -263 -33 -393 -22 -64 5 -120 14 -123 20 -11 16 -52 34 -63
28 -5 -4 -47 11 -92 34 -76 37 -85 44 -105 88 -12 26 -23 64 -25 83 l-2 35
105 8 c87 7 111 12 140 32 56 39 172 53 410 52 155 -2 211 -5 230 -16z m5737
-65 c0 -8 -6 -12 -15 -9 -11 5 -11 7 0 14 7 5 13 9 14 9 0 0 1 -6 1 -14z
m-11586 -26 c23 0 24 -13 4 -33 -11 -12 -12 -17 -2 -21 6 -3 -1 -3 -18 1 -40
8 -45 11 -44 31 0 14 2 14 10 -3 8 -17 9 -16 5 8 -3 21 0 27 11 23 8 -3 23 -6
34 -6z m4734 -190 c3 -5 1 -10 -4 -10 -6 0 -11 5 -11 10 0 6 2 10 4 10 3 0 8
-4 11 -10z m115 0 c12 -8 12 -10 -5 -10 -11 0 -27 5 -35 10 -12 8 -12 10 5 10
11 0 27 -5 35 -10z m118 -17 c-10 -2 -28 -2 -40 0 -13 2 -5 4 17 4 22 1 32 -1
23 -4z m-873 -22 c27 -2 28 -3 10 -12 -14 -6 -9 -7 20 -3 23 3 53 1 67 -5 30
-11 43 -4 27 16 -9 9 -8 13 0 13 6 0 11 -4 11 -10 0 -5 8 -10 18 -10 9 -1 31
-7 47 -15 27 -13 18 -14 -100 -9 -147 5 -302 23 -287 33 10 6 122 7 187 2z
m255 -11 c25 0 50 -10 50 -21 0 -5 -15 -9 -34 -9 -33 0 -47 14 -45 43 0 8 2 8
6 0 2 -7 13 -13 23 -13z m130 -18 c24 -10 23 -11 -11 -11 -28 -1 -38 4 -42 18
-4 16 -1 18 12 11 9 -4 27 -13 41 -18z m101 6 c16 2 29 -3 32 -12 5 -12 0 -14
-26 -10 -48 8 -57 12 -57 24 0 6 5 8 12 3 7 -4 25 -6 39 -5z m133 -13 c18 -14
16 -15 -27 -15 -35 0 -47 4 -47 15 0 20 48 19 74 0z m1314 8 c-10 -2 -26 -2
-35 0 -10 3 -2 5 17 5 19 0 27 -2 18 -5z m-1203 -26 c7 -6 2 -8 -15 -3 -14 3
-35 6 -47 6 -13 0 -23 5 -23 10 0 13 70 2 85 -13z m995 13 c0 -5 -2 -10 -4
-10 -3 0 -8 5 -11 10 -3 6 -1 10 4 10 6 0 11 -4 11 -10z m267 4 c-3 -3 -12 -4
-19 -1 -8 3 -5 6 6 6 11 1 17 -2 13 -5z m-1192 -14 c17 -7 15 -9 -12 -9 -18
-1 -33 4 -33 9 0 12 17 12 45 0z m312 -6 c-3 -3 -12 -4 -19 -1 -8 3 -5 6 6 6
11 1 17 -2 13 -5z m648 -4 c-18 -7 -18 -8 8 -15 15 -4 27 -11 27 -16 0 -12
-443 0 -575 15 -94 10 -83 11 160 10 143 0 273 2 289 5 49 10 114 11 91 1z
m87 -24 c4 -6 4 -13 1 -16 -3 -3 -8 1 -10 8 -3 6 -11 12 -18 12 -8 0 -17 5
-21 11 -4 8 1 9 17 4 13 -4 27 -13 31 -19z m-769 7 c-7 -2 -21 -2 -30 0 -10 3
-4 5 12 5 17 0 24 -2 18 -5z m867 -13 c0 -5 -2 -10 -4 -10 -3 0 -8 5 -11 10
-3 6 -1 10 4 10 6 0 11 -4 11 -10z m-12095 -173 c44 -15 92 -29 108 -32 36 -7
34 -27 -7 -84 -18 -25 -60 -99 -94 -165 -67 -133 -63 -134 -86 24 -24 169 -30
294 -14 288 7 -3 49 -17 93 -31z m2105 -13 l25 -15 -25 7 c-14 3 -32 10 -40
15 -13 7 -13 8 0 8 8 0 26 -6 40 -15z m32 -33 c4 -3 -12 -6 -36 -6 -32 0 -40
2 -32 12 10 11 53 8 68 -6z m103 -19 c-3 -3 -11 0 -18 7 -9 10 -8 11 6 5 10
-3 15 -9 12 -12z m-118 2 c-3 -3 -12 -4 -19 -1 -8 3 -5 6 6 6 11 1 17 -2 13
-5z m203 -39 c33 -19 21 -19 -21 0 -19 8 -27 14 -19 14 8 0 26 -6 40 -14z
m228 -96 c10 -14 10 -18 -3 -23 -9 -3 -13 -2 -10 4 3 6 2 10 -4 10 -6 0 -8 7
-4 15 3 9 6 15 7 13 1 -2 7 -10 14 -19z m76 -41 c24 -47 13 -44 -14 4 -13 22
-18 38 -12 34 6 -3 18 -21 26 -38z m59 -3 c-3 -9 -8 -14 -10 -11 -3 3 -2 9 2
15 9 16 15 13 8 -4z m34 -11 c-3 -3 -12 -4 -19 -1 -8 3 -5 6 6 6 11 1 17 -2
13 -5z m40 -10 c-3 -3 -12 -4 -19 -1 -8 3 -5 6 6 6 11 1 17 -2 13 -5z m-2732
-54 c3 -5 1 -10 -4 -10 -6 0 -11 5 -11 10 0 6 2 10 4 10 3 0 8 -4 11 -10z
m2932 -16 c-3 -3 -12 -4 -19 -1 -8 3 -5 6 6 6 11 1 17 -2 13 -5z m3134 -107
c-10 -9 -11 -8 -5 6 3 10 9 15 12 12 3 -3 0 -11 -7 -18z m-5876 -58 c-18 -57
-52 -260 -60 -371 -4 -49 -10 -88 -15 -88 -16 0 -130 256 -130 292 0 11 211
220 216 215 2 -2 -3 -23 -11 -48z m1202 9 c-3 -8 -6 -5 -6 6 -1 11 2 17 5 13
3 -3 4 -12 1 -19z m40 -15 c-3 -10 -5 -4 -5 12 0 17 2 24 5 18 2 -7 2 -21 0
-30z m4640 -15 c-3 -7 -5 -2 -5 12 0 14 2 19 5 13 2 -7 2 -19 0 -25z m-5177
-48 c-7 -28 -14 -49 -16 -47 -3 2 1 27 8 55 6 29 13 50 16 47 2 -2 -1 -27 -8
-55z m507 38 c-3 -8 -6 -5 -6 6 -1 11 2 17 5 13 3 -3 4 -12 1 -19z m4673 -29
c0 -6 -4 -7 -10 -4 -5 3 -10 11 -10 16 0 6 5 7 10 4 6 -3 10 -11 10 -16z
m-5470 -16 c0 -10 21 -58 47 -108 38 -74 47 -104 53 -165 5 -47 4 -80 -3 -88
-5 -7 -8 -15 -5 -17 2 -3 15 13 29 35 13 22 28 40 32 40 19 0 -89 -164 -136
-209 l-25 -23 -6 43 c-17 141 -13 509 5 509 5 0 9 -8 9 -17z m1548 -40 c-10
-2 -26 -2 -35 0 -10 3 -2 5 17 5 19 0 27 -2 18 -5z m55 -10 c-7 -2 -19 -2 -25
0 -7 3 -2 5 12 5 14 0 19 -2 13 -5z m-1344 -52 c-7 -23 -14 -39 -16 -37 -3 2
1 23 8 45 7 23 14 39 16 37 3 -2 -1 -23 -8 -45z m-40 22 c10 -18 -17 -105 -39
-127 -14 -14 -11 77 4 117 12 31 21 34 35 10z m-99 -3 c0 -5 -5 -10 -11 -10
-5 0 -7 5 -4 10 3 6 8 10 11 10 2 0 4 -4 4 -10z m2121 -7 c13 -16 12 -17 -3
-4 -17 13 -22 21 -14 21 2 0 10 -8 17 -17z m-154 -433 c260 -63 471 -115 470
-117 -2 -1 -109 6 -238 17 -348 29 -929 70 -989 70 l-51 0 19 28 c11 15 36 59
55 98 l36 71 113 -27 c62 -15 326 -78 585 -140z m14270 -466 c-3 -3 -12 -4
-19 -1 -8 3 -5 6 6 6 11 1 17 -2 13 -5z m-3054 -158 c-5 -7 -9 -5 -11 7 -2 9
-8 14 -14 11 -7 -4 -8 -2 -4 5 6 9 11 9 22 0 7 -6 11 -16 7 -23z"/>
<path d="M2892 8417 c-25 -27 -30 -46 -6 -27 15 13 38 50 31 50 -2 0 -13 -10
-25 -23z"/>
<path d="M2820 8320 c-6 -11 -8 -20 -6 -20 3 0 10 9 16 20 6 11 8 20 6 20 -3
0 -10 -9 -16 -20z"/>
<path d="M1130 6396 c0 -2 8 -10 18 -17 15 -13 16 -12 3 4 -13 16 -21 21 -21
13z"/>
<path d="M870 6025 c0 -7 40 -81 41 -75 7 53 7 60 -4 53 -7 -4 -6 0 2 10 12
15 11 17 -13 17 -14 0 -26 -2 -26 -5z"/>
<path d="M710 5843 c0 -18 20 -37 39 -38 27 -2 27 0 -9 25 -16 12 -30 18 -30
13z"/>
<path d="M1381 5484 c0 -11 3 -14 6 -6 3 7 2 16 -1 19 -3 4 -6 -2 -5 -13z"/>
<path d="M760 5463 c-48 -9 -45 -23 4 -23 26 0 45 4 42 9 -4 5 0 12 6 14 15 6
-17 6 -52 0z"/>
<path d="M837 5335 c5 -8 5 -58 1 -112 -4 -66 -3 -100 4 -104 6 -4 7 -12 4
-18 -5 -8 -15 -7 -36 4 -22 12 -35 12 -62 3 -45 -15 -51 -22 -28 -36 15 -9 18
-9 14 1 -5 14 42 42 48 29 7 -16 128 -46 213 -52 68 -5 105 -3 155 10 l65 16
3 77 c2 45 -1 77 -7 77 -5 0 -12 -8 -14 -17 -4 -14 -5 -12 -6 5 0 12 -6 22
-12 22 -6 0 -39 13 -73 29 -145 69 -290 104 -269 66z m340 -147 c-3 -8 -6 -5
-6 6 -1 11 2 17 5 13 3 -3 4 -12 1 -19z m14 -29 c-13 -11 -27 -17 -30 -13 -7
7 28 34 43 34 6 -1 0 -10 -13 -21z"/>
<path d="M1245 5340 c-3 -5 -15 -10 -26 -10 -29 0 -23 -17 10 -28 25 -9 30 -7
39 13 14 30 -7 52 -23 25z"/>
<path d="M1420 5289 c0 -5 5 -7 10 -4 6 3 10 8 10 11 0 2 -4 4 -10 4 -5 0 -10
-5 -10 -11z"/>
<path d="M1300 5250 c-24 -15 -7 -18 25 -4 23 10 25 13 10 13 -11 1 -27 -3
-35 -9z"/>
<path d="M1382 5216 c16 -31 21 -34 14 -8 -9 26 9 30 23 5 5 -10 13 -14 18
-10 9 10 -23 31 -49 33 -14 1 -15 -2 -6 -20z"/>
<path d="M1240 5200 c-18 -34 -12 -46 25 -48 34 -3 34 -2 24 27 -13 37 -35 46
-49 21z"/>
<path d="M1320 5211 c15 -4 26 -15 28 -29 4 -24 18 -29 25 -9 9 25 -13 47 -46
46 -30 -1 -30 -1 -7 -8z"/>
<path d="M1230 5096 c0 -7 10 -26 22 -41 19 -24 26 -27 65 -22 30 3 43 1 40
-7 -2 -6 -16 -10 -31 -9 -23 2 -26 0 -16 -12 7 -8 16 -12 22 -9 5 3 15 1 23
-6 9 -7 15 -8 20 0 3 5 1 10 -4 10 -25 0 -9 18 19 22 32 5 39 -9 18 -30 -9 -9
-7 -12 10 -12 12 0 22 4 22 9 0 5 3 18 6 28 5 15 4 15 -5 3 -7 -10 -11 -11
-11 -3 0 18 -32 53 -42 47 -4 -3 -8 2 -8 10 0 12 -9 16 -32 15 -18 -1 -25 -3
-15 -6 21 -5 22 -19 2 -27 -10 -3 -20 5 -30 24 -12 23 -22 30 -45 30 -19 0
-30 -5 -30 -14z m160 -56 c-8 -5 -17 -7 -19 -4 -3 3 1 9 9 14 8 5 17 7 19 4 3
-3 -1 -9 -9 -14z"/>
<path d="M1630 5070 c-24 -15 -7 -19 20 -5 15 8 19 14 10 14 -8 1 -22 -3 -30
-9z"/>
<path d="M1198 5023 c7 -3 16 -2 19 1 4 3 -2 6 -13 5 -11 0 -14 -3 -6 -6z"/>
<path d="M1503 4964 c-25 -66 -28 -62 55 -63 59 -1 73 2 64 11 -7 7 -12 28
-12 47 0 42 -11 35 -12 -8 -1 -18 -5 -34 -10 -37 -15 -9 -50 7 -44 21 3 8 -3
24 -13 36 l-17 22 -11 -29z"/>
<path d="M1370 4910 c-8 -5 -12 -12 -9 -15 4 -3 12 1 19 10 14 17 11 19 -10 5z"/>
<path d="M1380 4885 c-6 -8 -9 -19 -5 -25 11 -18 23 -11 23 15 0 29 -2 30 -18
10z"/>
<path d="M975 4050 c3 -5 12 -7 20 -3 21 7 19 13 -6 13 -11 0 -18 -4 -14 -10z"/>
<path d="M1070 3885 l-23 -25 26 13 c15 6 27 18 27 25 0 17 -3 16 -30 -13z"/>
<path d="M1261 3888 c-5 -13 -7 -25 -5 -27 7 -7 24 11 24 27 0 15 2 15 10 2 8
-13 10 -12 10 3 0 25 -29 21 -39 -5z"/>
<path d="M7041 3514 c0 -11 3 -14 6 -6 3 7 2 16 -1 19 -3 4 -6 -2 -5 -13z"/>
<path d="M10873 5713 c9 -2 25 -2 35 0 9 3 1 5 -18 5 -19 0 -27 -2 -17 -5z"/>
<path d="M10943 5713 c9 -2 23 -2 30 0 6 3 -1 5 -18 5 -16 0 -22 -2 -12 -5z"/>
<path d="M11068 5713 c12 -2 32 -2 45 0 12 2 2 4 -23 4 -25 0 -35 -2 -22 -4z"/>
<path d="M10778 5703 c7 -3 16 -2 19 1 4 3 -2 6 -13 5 -11 0 -14 -3 -6 -6z"/>
<path d="M10834 5642 c-30 -3 -32 -6 -49 -78 -10 -41 -15 -78 -11 -81 3 -4 61
-1 129 5 67 7 148 15 180 18 31 3 57 9 57 14 0 4 12 7 28 6 23 -1 27 3 30 31
2 22 -3 37 -20 52 -21 20 -23 20 -29 4 -5 -15 -6 -14 -11 4 -4 15 -17 22 -50
27 -43 7 -187 5 -254 -2z m56 -42 c-8 -16 -17 -19 -38 -14 -42 10 -49 24 -9
17 24 -4 37 -2 37 6 0 6 5 11 10 11 7 0 7 -6 0 -20z"/>
<path d="M10761 5584 c0 -11 3 -14 6 -6 3 7 2 16 -1 19 -3 4 -6 -2 -5 -13z"/>
<path d="M11322 5538 c-3 -35 10 -48 48 -48 20 0 27 7 36 35 6 19 9 37 6 40
-3 3 -24 5 -47 5 -39 0 -41 -2 -43 -32z"/>
<path d="M10870 5470 c0 -6 27 -10 61 -10 37 0 58 4 54 10 -3 6 -31 10 -61 10
-30 0 -54 -4 -54 -10z"/>
<path d="M11504 5355 c34 -18 56 -19 56 -4 0 6 7 9 15 5 8 -3 15 -1 15 4 0 6
-26 10 -57 10 -58 0 -58 0 -29 -15z"/>
<path d="M12003 5522 c-7 -5 -10 -18 -6 -32 7 -25 7 -25 14 5 9 33 8 37 -8 27z"/>
<path d="M12210 5490 c-19 -4 -31 -8 -26 -9 5 0 4 -7 -1 -13 -12 -15 -43 -106
-43 -125 0 -18 67 -17 146 2 34 8 97 14 139 14 42 0 80 2 83 6 11 11 6 105 -6
117 -7 7 -58 13 -123 16 -108 5 -111 4 -105 -16 4 -11 2 -23 -4 -27 -6 -4 -10
4 -10 19 0 14 -3 25 -7 25 -5 -1 -24 -5 -43 -9z"/>
<path d="M12136 5453 c-4 -9 -2 -21 4 -27 7 -7 10 -2 10 17 0 31 -5 34 -14 10z"/>
<path d="M11993 5390 c0 -25 2 -35 4 -22 2 12 2 32 0 45 -2 12 -4 2 -4 -23z"/>
<path d="M11890 5390 c20 -13 33 -13 25 0 -3 6 -14 10 -23 10 -15 0 -15 -2 -2
-10z"/>
<path d="M12000 5300 c-1 -8 -2 -19 -1 -23 1 -5 -9 -5 -21 -1 -51 15 -51 14
-5 -11 27 -15 52 -24 55 -20 4 3 1 9 -5 13 -6 4 -13 18 -16 32 -2 14 -5 18 -7
10z"/>
<path d="M871 4454 c-13 -15 -29 -41 -37 -60 -7 -18 -23 -36 -35 -39 -11 -4
-18 -9 -16 -11 8 -9 77 30 77 42 0 7 6 17 13 21 12 7 33 73 24 73 -2 0 -14
-12 -26 -26z"/>
<path d="M11320 9588 c0 -5 26 -7 58 -7 61 1 55 6 -15 11 -24 2 -43 0 -43 -4z"/>
<path d="M11458 9573 c7 -3 16 -2 19 1 4 3 -2 6 -13 5 -11 0 -14 -3 -6 -6z"/>
<path d="M11505 9570 c19 -8 73 -14 64 -6 -2 2 -22 6 -44 9 -28 5 -34 4 -20
-3z"/>
<path d="M11588 9553 c7 -3 16 -2 19 1 4 3 -2 6 -13 5 -11 0 -14 -3 -6 -6z"/>
<path d="M3385 9525 c-25 -12 -26 -14 -5 -9 14 4 29 10 35 15 12 12 5 11 -30
-6z"/>
<path d="M3179 9432 c-188 -95 -321 -178 -683 -425 -337 -228 -601 -417 -876
-625 -113 -86 -216 -159 -230 -163 -14 -5 -65 -20 -115 -35 -100 -29 -183 -68
-265 -124 -62 -43 -144 -125 -154 -155 -6 -16 -5 -18 5 -7 7 6 33 12 58 12 47
0 296 -25 365 -36 21 -3 36 -2 33 3 -6 10 608 10 640 -1 18 -6 22 -4 17 7 -4
12 1 13 30 3 20 -6 36 -14 36 -18 0 -5 5 -8 11 -8 5 0 8 4 5 9 -7 10 80 7 108
-5 14 -5 17 -4 12 4 -4 7 -11 12 -16 12 -4 0 -34 15 -67 33 -119 68 -344 153
-489 187 -44 10 -69 19 -56 19 36 2 203 -37 294 -68 134 -46 234 -88 383 -162
137 -68 184 -88 115 -48 -23 13 -27 18 -11 13 16 -4 21 -3 17 5 -9 14 -7 14
45 -4 58 -21 74 -6 65 59 -4 26 -11 44 -16 41 -5 -3 -11 3 -15 14 -3 11 -21
29 -40 40 -19 11 -35 24 -35 29 0 12 -113 72 -134 72 -9 0 -16 4 -16 9 0 5
-16 12 -36 16 -20 3 -52 13 -73 22 -56 24 -70 29 -151 53 -41 11 -85 25 -98
31 -13 5 -38 9 -57 9 -19 0 -35 5 -35 11 0 5 -8 9 -17 8 -30 -4 -71 12 -78 29
-4 11 3 25 19 38 13 12 23 24 20 27 -2 2 2 10 11 17 8 7 15 9 15 6 0 -4 28 17
63 46 35 29 76 62 91 73 16 11 41 30 56 43 15 12 33 22 38 22 6 0 15 6 19 14
4 8 32 30 60 48 29 19 50 38 46 41 -3 4 1 7 10 7 9 0 45 22 80 49 36 27 89 64
118 82 30 18 60 41 67 51 7 10 19 18 25 18 7 0 30 16 51 34 21 19 58 44 82 57
24 12 44 26 44 32 0 5 7 7 14 4 10 -4 13 -1 9 9 -3 9 1 14 13 14 10 0 27 8 38
18 12 10 52 38 90 62 39 23 81 53 95 67 14 13 36 26 49 29 12 4 22 10 22 15 0
5 6 9 13 9 6 1 28 14 47 30 19 17 39 30 45 30 5 0 21 12 34 25 13 14 29 25 36
25 20 0 86 41 80 50 -2 4 14 10 36 14 30 5 39 10 35 21 -3 10 4 17 22 21 27 7
102 50 102 59 0 12 -25 1 -171 -73z m-1070 -1550 c-14 -5 -39 6 -39 17 0 5 11
4 25 -2 13 -7 20 -14 14 -15z m151 19 c0 -5 14 -11 31 -15 17 -3 28 -10 24
-16 -4 -6 -17 -5 -35 5 -31 16 -48 35 -31 35 6 0 11 -4 11 -9z"/>
<path d="M2548 8794 c-39 -21 -35 -28 4 -8 31 16 32 16 50 -6 12 -14 18 -17
18 -8 0 17 -20 38 -34 38 -6 -1 -23 -8 -38 -16z"/>
<path d="M2560 8766 c0 -2 8 -10 18 -17 15 -13 16 -12 3 4 -13 16 -21 21 -21
13z"/>
<path d="M2335 8550 c-3 -5 -1 -10 4 -10 6 0 11 5 11 10 0 6 -2 10 -4 10 -3 0
-8 -4 -11 -10z"/>
<path d="M2378 8503 c7 -3 16 -2 19 1 4 3 -2 6 -13 5 -11 0 -14 -3 -6 -6z"/>
<path d="M13090 8436 c7 -7 13 -7 20 0 6 6 3 10 -10 10 -13 0 -16 -4 -10 -10z"/>
<path d="M2310 8381 c0 -17 4 -32 8 -35 4 -2 6 11 4 30 -5 42 -12 45 -12 5z"/>
<path d="M2297 8319 c7 -7 15 -10 18 -7 3 3 -2 9 -12 12 -14 6 -15 5 -6 -5z"/>
<path d="M2250 8313 c0 -17 29 -43 47 -43 9 0 13 3 9 8 -4 4 -12 7 -16 7 -5 0
-16 9 -24 20 -9 11 -16 15 -16 8z"/>
<path d="M5538 8123 c7 -3 16 -2 19 1 4 3 -2 6 -13 5 -11 0 -14 -3 -6 -6z"/>
<path d="M6287 8049 c7 -7 15 -10 18 -7 3 3 -2 9 -12 12 -14 6 -15 5 -6 -5z"/>
<path d="M3805 7934 c-166 -139 -432 -417 -466 -489 -6 -11 0 -7 13 10 140
181 328 370 496 498 34 27 62 50 62 53 0 12 -23 -4 -105 -72z"/>
<path d="M2400 7801 c24 -20 40 -26 40 -16 0 2 -15 12 -32 20 l-33 16 25 -20z"/>
<path d="M14070 7807 c3 -3 196 -55 430 -115 1095 -284 1555 -437 2058 -685
95 -47 168 -79 161 -71 -6 8 -18 14 -26 14 -9 0 -13 6 -10 14 4 9 1 13 -7 10
-6 -2 -28 2 -47 10 -19 8 -28 15 -20 16 8 0 11 3 7 8 -7 7 -11 8 -38 11 -9 1
-9 4 1 10 9 6 22 6 34 -1 11 -6 32 -14 46 -18 14 -4 35 -11 46 -16 18 -7 19
-6 6 10 -13 16 -12 16 15 5 16 -7 38 -22 49 -33 19 -20 85 -50 92 -42 9 9
-195 126 -353 203 -336 164 -602 258 -1134 401 -162 44 -425 101 -785 172
-170 33 -346 68 -390 76 -116 23 -141 27 -135 21z m987 -223 c-3 -3 -12 -4
-19 -1 -8 3 -5 6 6 6 11 1 17 -2 13 -5z m1298 -394 c8 -13 -5 -13 -25 0 -13 8
-13 10 2 10 9 0 20 -4 23 -10z m82 -86 c-3 -3 -12 -4 -19 -1 -8 3 -5 6 6 6 11
1 17 -2 13 -5z m84 -52 c-7 -2 -18 1 -23 6 -8 8 -4 9 13 5 13 -4 18 -8 10 -11z
m39 -12 c0 -5 -4 -10 -10 -10 -5 0 -10 5 -10 10 0 6 5 10 10 10 6 0 10 -4 10
-10z m120 -10 c0 -5 -7 -7 -15 -4 -8 4 -15 8 -15 10 0 2 7 4 15 4 8 0 15 -4
15 -10z"/>
<path d="M2553 7640 c21 -17 25 -25 17 -35 -12 -15 3 -31 19 -21 5 4 11 2 13
-3 3 -10 249 -74 256 -67 4 5 -140 50 -150 48 -5 -1 -8 3 -8 9 0 5 -4 8 -9 5
-5 -4 -11 -2 -13 3 -3 7 -117 71 -143 79 -5 2 3 -7 18 -18z"/>
<path d="M10478 7503 c23 -2 61 -2 85 0 23 2 4 4 -43 4 -47 0 -66 -2 -42 -4z"/>
<path d="M3246 7285 c-9 -26 -7 -32 5 -12 6 10 9 21 6 23 -2 3 -7 -2 -11 -11z"/>
<path d="M3216 7194 c-4 -14 -5 -28 -3 -31 3 -2 8 8 11 23 4 14 5 28 3 31 -3
2 -8 -8 -11 -23z"/>
<path d="M3388 7123 c12 -2 30 -2 40 0 9 3 -1 5 -23 4 -22 0 -30 -2 -17 -4z"/>
<path d="M3463 7113 c9 -2 25 -2 35 0 9 3 1 5 -18 5 -19 0 -27 -2 -17 -5z"/>
<path d="M7333 7113 c9 -2 23 -2 30 0 6 3 -1 5 -18 5 -16 0 -22 -2 -12 -5z"/>
<path d="M7408 7113 c7 -3 16 -2 19 1 4 3 -2 6 -13 5 -11 0 -14 -3 -6 -6z"/>
<path d="M3543 7103 c9 -2 23 -2 30 0 6 3 -1 5 -18 5 -16 0 -22 -2 -12 -5z"/>
<path d="M3603 7093 c9 -2 25 -2 35 0 9 3 1 5 -18 5 -19 0 -27 -2 -17 -5z"/>
<path d="M3673 7083 c9 -2 23 -2 30 0 6 3 -1 5 -18 5 -16 0 -22 -2 -12 -5z"/>
<path d="M3733 7073 c9 -2 23 -2 30 0 6 3 -1 5 -18 5 -16 0 -22 -2 -12 -5z"/>
<path d="M3181 7044 c0 -11 3 -14 6 -6 3 7 2 16 -1 19 -3 4 -6 -2 -5 -13z"/>
<path d="M3172 6985 c0 -16 2 -22 5 -12 2 9 2 23 0 30 -3 6 -5 -1 -5 -18z"/>
<path d="M5983 7003 c9 -2 23 -2 30 0 6 3 -1 5 -18 5 -16 0 -22 -2 -12 -5z"/>
<path d="M3350 6997 c6 -6 205 -40 310 -52 48 -6 59 -4 80 15 l25 21 -27 -17
c-26 -15 -37 -15 -180 6 -84 12 -166 24 -183 27 -16 3 -28 3 -25 0z"/>
<path d="M6053 6993 c9 -2 23 -2 30 0 6 3 -1 5 -18 5 -16 0 -22 -2 -12 -5z"/>
<path d="M6570 6988 c-69 -5 -204 -8 -300 -5 -118 2 -159 1 -125 -5 64 -11
424 -17 493 -8 38 5 55 3 63 -7 9 -10 15 -10 25 -2 8 6 12 15 9 19 -2 4 7 5
20 2 14 -2 25 0 25 5 0 12 -58 13 -210 1z"/>
<path d="M6503 6953 c9 -2 23 -2 30 0 6 3 -1 5 -18 5 -16 0 -22 -2 -12 -5z"/>
<path d="M693 6936 c-21 -25 -51 -91 -83 -186 -18 -52 -34 -97 -36 -99 -3 -3
-2 29 0 70 4 63 4 66 -3 24 -5 -27 -11 -102 -15 -165 l-6 -115 23 80 c25 87
80 236 121 328 14 32 26 62 26 67 0 14 -13 12 -27 -4z"/>
<path d="M7150 6940 c-18 -12 -2 -12 25 0 13 6 15 9 5 9 -8 0 -22 -4 -30 -9z"/>
<path d="M3156 6879 c-32 -315 41 -861 186 -1384 57 -206 58 -284 4 -443 -21
-62 -36 -115 -34 -117 2 -2 21 45 41 106 57 166 59 236 12 414 -156 595 -214
973 -202 1323 3 89 4 162 3 162 -2 0 -6 -28 -10 -61z"/>
<path d="M7218 6923 c7 -3 16 -2 19 1 4 3 -2 6 -13 5 -11 0 -14 -3 -6 -6z"/>
<path d="M16880 6920 c0 -5 5 -10 11 -10 5 0 7 5 4 10 -3 6 -8 10 -11 10 -2 0
-4 -4 -4 -10z"/>
<path d="M16740 6916 c0 -2 7 -7 16 -10 8 -3 12 -2 9 4 -6 10 -25 14 -25 6z"/>
<path d="M7878 6883 c7 -3 16 -2 19 1 4 3 -2 6 -13 5 -11 0 -14 -3 -6 -6z"/>
<path d="M9515 6870 c3 -5 11 -10 16 -10 6 0 7 5 4 10 -3 6 -11 10 -16 10 -6
0 -7 -4 -4 -10z"/>
<path d="M582 6835 c0 -16 2 -22 5 -12 2 9 2 23 0 30 -3 6 -5 -1 -5 -18z"/>
<path d="M9588 6853 c7 -3 16 -2 19 1 4 3 -2 6 -13 5 -11 0 -14 -3 -6 -6z"/>
<path d="M9826 6842 c-6 -10 53 -36 61 -28 3 2 -6 7 -19 11 -13 4 -26 12 -29
17 -4 7 -9 7 -13 0z"/>
<path d="M11408 6823 c7 -3 16 -2 19 1 4 3 -2 6 -13 5 -11 0 -14 -3 -6 -6z"/>
<path d="M9910 6800 c8 -5 20 -10 25 -10 6 0 3 5 -5 10 -8 5 -19 10 -25 10 -5
0 -3 -5 5 -10z"/>
<path d="M10008 6793 c7 -3 16 -2 19 1 4 3 -2 6 -13 5 -11 0 -14 -3 -6 -6z"/>
<path d="M9951 6787 c9 -8 89 -36 89 -32 0 6 -69 35 -83 35 -6 0 -8 -2 -6 -3z"/>
<path d="M12645 6680 c-3 -5 -1 -10 4 -10 6 0 11 5 11 10 0 6 -2 10 -4 10 -3
0 -8 -4 -11 -10z"/>
<path d="M12687 6664 c6 -15 23 -19 23 -5 0 5 -7 11 -14 14 -10 4 -13 1 -9 -9z"/>
<path d="M16760 6605 c0 -8 7 -15 16 -15 14 0 14 3 4 15 -7 8 -14 15 -16 15
-2 0 -4 -7 -4 -15z"/>
<path d="M16600 6520 c0 -6 7 -10 15 -10 8 0 15 2 15 4 0 2 -7 6 -15 10 -8 3
-15 1 -15 -4z"/>
<path d="M13220 6490 c-11 -8 -5 -9 20 -5 19 3 36 8 39 11 9 9 -45 3 -59 -6z"/>
<path d="M13260 6460 c20 -13 33 -13 25 0 -3 6 -14 10 -23 10 -15 0 -15 -2 -2
-10z"/>
<path d="M18261 6016 c-8 -9 -11 -19 -7 -23 9 -9 29 13 24 27 -2 8 -8 7 -17
-4z"/>
<path d="M16324 6010 c-12 -4 -45 -7 -74 -5 -51 4 -52 3 -34 -13 28 -26 55
-34 70 -21 17 14 17 9 4 -27 -9 -22 -7 -33 12 -60 16 -23 28 -32 40 -28 9 3
30 -3 45 -12 22 -14 20 -9 -14 27 -23 24 -46 55 -51 70 -12 31 1 59 28 59 11
0 20 5 20 10 0 12 -17 12 -46 0z"/>
<path d="M16400 6015 c0 -12 25 -31 59 -45 18 -7 48 -24 67 -36 19 -13 41 -21
49 -18 22 9 8 24 -22 24 -16 0 -37 12 -58 34 -28 30 -95 59 -95 41z"/>
<path d="M16115 5996 c-20 -8 -40 -10 -60 -4 -44 12 -50 10 -30 -12 24 -27 53
-34 71 -19 14 12 15 10 1 -23 -14 -33 -14 -37 10 -67 16 -20 31 -30 41 -26 8
3 25 -2 38 -10 35 -22 29 -9 -10 25 -44 39 -62 81 -46 109 6 12 19 21 30 21
10 0 22 5 25 10 9 14 -34 12 -70 -4z"/>
<path d="M15930 5984 c-32 -14 -51 -13 -102 2 -29 9 -20 -10 17 -33 30 -20 36
-21 49 -8 18 18 32 20 18 3 -23 -30 -24 -59 -2 -91 18 -27 29 -33 61 -33 l38
-1 -24 18 c-13 11 -33 35 -45 54 -21 33 -21 37 -6 60 9 14 25 25 36 25 10 0
22 5 25 10 9 15 -25 12 -65 -6z"/>
<path d="M15742 5977 c-19 -6 -40 -21 -49 -33 -13 -20 -13 -27 5 -66 22 -50
36 -63 75 -70 l28 -5 -24 26 c-64 68 -67 123 -7 136 16 4 30 11 30 16 0 11
-15 10 -58 -4z"/>
<path d="M18224 5975 c-18 -14 -17 -14 16 -16 33 -2 33 -2 -10 -9 l-45 -7 53
-1 c57 -2 65 9 26 35 -17 11 -23 11 -40 -2z"/>
<path d="M16355 5951 l20 -24 -24 6 -23 6 23 -25 c12 -13 25 -21 28 -17 4 5
10 11 14 14 4 3 -8 19 -25 35 -24 21 -27 23 -13 5z"/>
<path d="M6368 5933 c7 -3 16 -2 19 1 4 3 -2 6 -13 5 -11 0 -14 -3 -6 -6z"/>
<path d="M16130 5937 c0 -3 12 -18 27 -31 24 -22 29 -24 36 -10 6 11 4 21 -8
33 -10 9 -15 10 -11 4 9 -17 -16 -17 -32 -1 -7 7 -12 9 -12 5z"/>
<path d="M6430 5920 c14 -6 46 -16 72 -21 33 -7 49 -16 53 -30 9 -27 16 -19 9
8 -6 21 -23 27 -134 49 l-25 4 25 -10z"/>
<path d="M15975 5921 c6 -11 3 -13 -13 -9 -28 8 -28 1 1 -23 23 -19 42 -25 33
-10 -4 5 -1 11 5 13 6 2 0 12 -12 23 -12 11 -19 14 -14 6z"/>
<path d="M16615 5875 c4 -17 8 -35 10 -41 2 -7 -4 -22 -12 -34 -14 -20 -22
-22 -70 -17 -53 6 -108 31 -99 45 2 4 -2 21 -10 37 -13 29 -13 28 -7 -22 5
-45 3 -52 -15 -62 -29 -15 -75 -14 -121 5 -32 13 -40 22 -45 49 -4 19 -12 37
-17 41 -8 4 -9 -1 -4 -17 23 -72 7 -99 -59 -99 -46 0 -106 17 -106 30 0 4 -9
10 -21 13 -16 4 -18 3 -9 -8 14 -17 3 -42 -23 -49 -40 -10 -81 -6 -125 14
l-44 20 28 -33 c32 -39 47 -45 101 -46 56 -1 96 17 90 41 -7 25 10 33 18 8 3
-11 18 -23 33 -26 15 -3 35 -8 44 -10 9 -3 35 0 58 6 33 9 40 15 40 35 0 14 5
25 10 25 6 0 10 -6 10 -14 0 -30 118 -48 161 -26 10 6 19 20 19 31 0 21 0 21
18 -1 25 -31 128 -40 159 -14 20 18 21 22 10 76 -7 31 -16 60 -20 65 -5 4 -6
-6 -2 -22z"/>
<path d="M18250 5815 c0 -38 3 -65 7 -62 7 7 5 118 -2 126 -3 2 -5 -26 -5 -64z"/>
<path d="M16032 5839 c6 -16 13 -28 15 -25 8 8 -6 56 -17 56 -5 0 -5 -13 2
-31z"/>
<path d="M18362 5755 c0 -16 2 -22 5 -12 2 9 2 23 0 30 -3 6 -5 -1 -5 -18z"/>
<path d="M8266 5531 c-5 -8 12 -11 56 -11 l63 0 -35 -18 -35 -17 65 -13 c36
-7 101 -22 144 -33 84 -20 95 -17 96 23 0 33 -103 62 -257 74 -63 5 -92 3 -97
-5z"/>
<path d="M8235 5520 c3 -5 8 -10 11 -10 2 0 4 5 4 10 0 6 -5 10 -11 10 -5 0
-7 -4 -4 -10z"/>
<path d="M18004 5459 c-5 -8 -3 -9 6 -4 7 4 16 2 22 -6 8 -12 9 -12 6 0 -6 20
-24 25 -34 10z"/>
<path d="M8664 5452 c4 -6 9 -31 11 -54 3 -30 2 -38 -5 -28 -5 8 -10 26 -10
40 -1 42 -16 7 -71 -160 -47 -142 -51 -163 -51 -250 0 -52 4 -114 9 -136 11
-45 3 -69 -29 -92 -10 -7 -18 -20 -18 -29 0 -19 53 -99 128 -195 28 -37 52
-71 52 -76 0 -5 11 -21 25 -36 14 -15 25 -37 25 -49 0 -12 7 -40 15 -62 11
-31 14 -35 15 -16 0 38 31 152 50 191 10 19 30 48 43 64 14 17 23 34 20 39 -4
6 -1 7 6 2 8 -4 21 1 32 14 11 12 15 21 9 21 -6 0 -13 -7 -16 -15 -4 -8 -10
-12 -16 -9 -5 3 -2 17 8 32 l16 27 -24 -25 c-14 -14 -39 -37 -56 -52 l-31 -27
5 107 c4 79 2 103 -6 92 -8 -11 -9 0 -5 45 9 86 44 326 61 424 9 46 13 93 10
105 -3 13 -33 37 -78 63 -76 43 -137 65 -124 45z m144 -170 c2 -7 -3 -12 -12
-12 -9 0 -16 7 -16 16 0 17 22 14 28 -4z"/>
<path d="M18424 5404 c-18 -14 -18 -15 4 -4 12 6 22 13 22 15 0 8 -5 6 -26
-11z"/>
<path d="M8315 5391 c-18 -58 9 -237 29 -186 3 9 6 25 6 35 0 22 51 144 62
148 24 10 2 22 -41 22 -40 0 -51 -4 -56 -19z"/>
<path d="M8500 5390 c14 -4 41 -8 60 -8 32 0 33 1 10 8 -14 4 -41 8 -60 8 -32
0 -33 -1 -10 -8z"/>
<path d="M18089 5372 c24 -35 51 -58 52 -46 0 5 5 0 10 -11 7 -17 8 -17 6 -2
-1 10 -6 19 -12 19 -16 3 -33 22 -27 32 3 5 0 6 -6 2 -7 -4 -12 -1 -12 7 0 8
-7 18 -16 21 -12 5 -11 0 5 -22z"/>
<path d="M8105 5360 c-87 -32 -115 -48 -115 -61 0 -6 -7 -8 -16 -5 -10 4 -14
2 -11 -6 2 -7 -3 -21 -11 -31 -15 -17 -16 -17 -29 5 -12 20 -12 16 -7 -37 26
-266 115 -649 142 -609 8 12 52 14 52 2 0 -4 9 -8 19 -8 11 0 22 -4 25 -9 7
-10 53 -20 61 -13 3 3 0 11 -6 18 -7 9 -6 12 7 10 10 -2 18 -13 20 -29 3 -32
35 -78 50 -72 7 2 10 -4 7 -16 -6 -21 12 -27 21 -6 3 6 3 2 0 -10 -4 -19 -2
-22 12 -16 10 4 15 2 11 -3 -8 -13 17 -86 26 -77 4 3 7 -1 7 -10 0 -9 5 -17
12 -17 6 0 19 -7 28 -15 9 -8 28 -16 42 -17 22 -2 31 -13 57 -71 37 -81 50
-86 20 -8 -11 30 -18 55 -16 57 5 5 67 -128 67 -143 0 -6 7 -14 16 -17 13 -5
14 -3 7 6 -15 18 -78 187 -139 373 -34 106 -53 150 -54 130 -2 -34 -68 163
-152 448 -43 148 -54 177 -67 171 -9 -4 -38 -14 -65 -24 -28 -9 -54 -23 -59
-31 -8 -12 14 -147 48 -299 3 -14 -3 -2 -14 25 -10 28 -24 49 -30 48 -6 -2
-13 9 -16 25 -3 15 -10 48 -16 73 -13 57 -8 137 8 144 7 2 10 11 7 20 -3 8 -1
15 5 15 20 0 12 17 -11 26 -19 6 -15 8 20 11 32 3 42 8 38 18 -6 17 10 28 44
32 23 3 24 2 8 -11 -24 -18 -23 -25 2 -19 26 7 32 17 23 40 -8 18 -11 18 -78
-7z m-60 -110 c3 -5 1 -10 -4 -10 -6 0 -11 5 -11 10 0 6 2 10 4 10 3 0 8 -4
11 -10z m98 -410 c3 -11 1 -18 -4 -14 -5 3 -9 12 -9 20 0 20 7 17 13 -6z m37
-101 c0 -6 -4 -7 -10 -4 -5 3 -10 11 -10 16 0 6 5 7 10 4 6 -3 10 -11 10 -16z
m142 -208 c34 -41 50 -66 36 -55 -15 10 -32 30 -38 42 -7 16 -16 22 -26 18 -9
-3 -12 -2 -9 5 4 6 0 18 -8 27 -60 64 -77 87 -77 99 0 8 -3 12 -7 10 -5 -3 -9
6 -9 19 -2 18 7 11 37 -34 21 -31 67 -90 101 -131z"/>
<path d="M8465 5332 c-27 -2 -53 -6 -57 -11 -4 -4 -1 -38 7 -76 13 -65 13 -70
-6 -97 -17 -23 -24 -26 -35 -17 -11 9 -14 8 -14 -8 0 -11 18 -37 40 -59 22
-21 40 -47 40 -56 0 -52 23 -9 70 135 29 89 55 167 57 173 5 14 -35 20 -102
16z"/>
<path d="M18170 5296 c0 -4 11 -19 25 -34 14 -15 25 -22 25 -16 0 6 -11 21
-25 34 -14 13 -25 20 -25 16z"/>
<path d="M8950 5274 c0 -4 42 -50 93 -103 51 -53 113 -123 137 -156 24 -33 45
-62 47 -64 1 -2 6 -2 9 2 15 14 -150 215 -234 286 -29 23 -52 39 -52 35z"/>
<path d="M7841 5229 c-1 -9 -42 -57 -92 -108 -57 -58 -89 -98 -85 -107 3 -8 0
-14 -5 -14 -7 0 -9 -10 -5 -27 4 -16 8 -35 10 -45 3 -23 18 -39 89 -93 34 -27
54 -40 45 -29 -22 26 -59 204 -45 222 7 9 4 17 -9 27 -17 13 -17 14 -1 9 10
-4 17 -3 16 2 -5 30 1 37 19 21 16 -15 19 -15 30 4 7 11 19 19 25 16 17 -6 34
15 31 38 -7 43 -22 99 -23 84z m-27 -110 c-20 -22 -28 -20 -18 5 3 9 10 13 15
10 5 -3 10 5 10 18 1 18 2 19 6 5 3 -10 -3 -27 -13 -38z"/>
<path d="M8925 5180 c-3 -5 -1 -10 5 -10 6 0 8 -5 4 -12 -4 -7 -3 -8 4 -4 6 4
9 13 5 21 -6 18 -10 19 -18 5z"/>
<path d="M10540 5152 c0 -4 10 -13 23 -21 22 -14 22 -14 3 8 -20 22 -26 25
-26 13z"/>
<path d="M9002 5088 c-6 -6 -12 -19 -12 -27 0 -8 -3 -11 -7 -8 -3 4 -14 0 -24
-9 -10 -9 -24 -14 -32 -11 -46 17 -53 -48 -19 -182 23 -93 20 -115 -12 -106
-14 4 -17 3 -8 -3 13 -9 6 -42 -9 -42 -4 0 -5 8 -2 17 6 15 5 16 -9 3 -11 -10
-12 -17 -5 -22 6 -4 8 -10 4 -15 -11 -10 -27 17 -27 46 0 49 -9 14 -15 -59
l-6 -75 32 38 c30 36 214 188 312 257 26 18 47 37 47 41 0 3 -31 42 -68 85
-52 61 -75 80 -97 82 -17 2 -36 -3 -43 -10z m-161 -441 c-10 -9 -11 -8 -5 6 3
10 9 15 12 12 3 -3 0 -11 -7 -18z"/>
<path d="M7842 5016 c-27 -31 -36 -35 -52 -26 -38 20 -24 -32 20 -75 21 -21
37 -42 34 -47 -3 -4 -2 -14 3 -20 4 -7 8 -16 9 -20 1 -5 2 -9 3 -10 9 -12 7
-58 -2 -58 -7 0 2 -11 18 -25 31 -25 51 -33 40 -15 -10 16 2 12 21 -7 17 -17
18 -17 11 0 -3 9 -20 86 -37 170 -17 83 -32 156 -33 160 -1 5 -17 -8 -35 -27z"/>
<path d="M7575 4986 c60 -55 74 -62 60 -29 -5 10 -8 23 -7 28 1 8 -62 41 -103
53 -5 2 17 -21 50 -52z"/>
<path d="M8061 5024 c0 -11 3 -14 6 -6 3 7 2 16 -1 19 -3 4 -6 -2 -5 -13z"/>
<path d="M7480 5015 c0 -2 10 -10 23 -16 20 -11 21 -11 8 4 -13 16 -31 23 -31
12z"/>
<path d="M7575 4929 c3 -9 -14 -49 -40 -95 -47 -83 -55 -110 -30 -100 8 3 15
1 15 -4 0 -6 -8 -10 -19 -10 -44 0 -62 -67 -31 -118 18 -29 23 -32 37 -20 19
15 65 114 61 131 -1 7 15 45 36 86 l38 74 -37 36 c-20 20 -33 29 -30 20z"/>
<path d="M9269 4868 c-1 -5 -2 -12 -3 -17 0 -5 -5 -13 -10 -18 -5 -5 -6 -3 -2
5 4 6 4 12 1 12 -11 0 -121 -78 -135 -96 -8 -10 1 -6 21 9 20 15 41 27 47 27
7 0 12 4 12 9 0 5 8 12 17 15 15 6 15 4 -2 -14 -10 -11 -24 -20 -32 -20 -7 0
-12 -3 -10 -7 1 -5 0 -8 -3 -8 -16 -1 -68 -59 -63 -71 3 -8 -1 -14 -8 -14 -7
0 -9 -3 -6 -6 4 -4 -7 -25 -23 -46 -16 -22 -26 -46 -23 -54 3 -8 0 -14 -7 -14
-7 0 -10 -7 -6 -16 5 -12 2 -15 -9 -10 -10 3 -13 2 -10 -5 4 -5 -1 -26 -10
-46 -9 -19 -24 -71 -33 -114 -17 -90 -7 -167 29 -212 10 -14 19 -29 19 -34 0
-5 -25 -17 -55 -27 -53 -17 -81 -36 -51 -36 9 0 13 -6 10 -15 -10 -25 5 -36
30 -20 21 14 22 14 20 -13 -1 -15 -5 -35 -9 -45 -7 -17 -6 -17 23 0 17 10 37
29 46 43 8 14 33 44 54 67 22 23 36 46 33 50 -3 5 -2 5 3 1 11 -10 36 23 28
37 -19 31 -3 56 112 180 180 194 168 179 160 209 -3 14 -11 23 -17 19 -6 -3
-7 -1 -3 6 9 15 -3 53 -15 46 -5 -3 -6 0 -4 7 3 8 -17 59 -44 113 -52 105 -70
135 -72 123z m45 -90 c15 -27 25 -48 22 -48 -9 0 -64 89 -58 94 3 3 6 5 7 4 1
-2 14 -24 29 -50z m40 -74 c3 -8 2 -12 -4 -9 -6 3 -10 10 -10 16 0 14 7 11 14
-7z m-217 -518 c-3 -7 -1 -19 4 -25 6 -8 5 -8 -3 -1 -8 7 -18 4 -32 -8 -22
-19 -15 -1 12 31 18 21 26 22 19 3z m-71 -74 c-17 -16 -18 -16 -5 5 7 12 15
20 18 17 3 -2 -3 -12 -13 -22z"/>
<path d="M7665 4748 c-24 -45 -42 -68 -50 -64 -23 8 -38 -19 -25 -45 10 -18 9
-26 -8 -48 -10 -14 -22 -37 -26 -49 -11 -34 -40 -8 -31 27 6 24 5 25 -10 10
-16 -16 -12 -24 58 -117 163 -214 183 -231 357 -297 161 -61 399 -145 411
-145 12 0 49 61 49 80 0 8 -28 44 -61 80 -81 87 -319 357 -350 396 -13 18 -81
79 -151 137 l-127 105 -36 -70z m310 -243 c30 -51 36 -86 22 -125 -13 -33 -27
-40 -27 -12 0 10 -4 22 -9 28 -15 15 -81 135 -81 147 0 6 8 19 17 30 17 18 18
18 36 -4 10 -13 29 -41 42 -64z m55 -177 c0 -38 -2 -41 -15 -27 -12 12 -14 21
-6 42 15 38 21 33 21 -15z m-102 -70 c45 -20 57 -48 20 -48 -17 0 -19 -3 -10
-9 11 -6 9 -9 -7 -14 -11 -3 -19 -2 -18 2 4 14 -39 57 -53 53 -9 -2 -7 2 5 12
20 16 20 16 0 33 -12 10 -27 27 -35 38 -8 11 1 5 20 -14 19 -19 54 -43 78 -53z"/>
<path d="M7899 4241 c24 -22 61 -28 61 -11 0 6 -9 10 -21 10 -11 0 -30 5 -42
11 -21 10 -21 9 2 -10z"/>
<path d="M7330 4740 c0 -5 5 -10 11 -10 5 0 7 5 4 10 -3 6 -8 10 -11 10 -2 0
-4 -4 -4 -10z"/>
<path d="M7382 4730 c7 -10 14 -18 15 -16 6 6 -9 36 -18 36 -5 0 -4 -9 3 -20z"/>
<path d="M10857 4720 c-127 -33 -177 -97 -182 -234 -2 -45 -10 -117 -19 -161
-57 -292 -99 -675 -100 -910 -1 -164 1 -183 20 -215 37 -63 133 -100 369 -140
192 -33 404 -40 1365 -40 964 0 1002 2 1185 50 104 28 161 53 174 78 27 51 1
171 -89 407 -122 320 -350 794 -430 893 -28 35 -49 66 -46 69 8 9 38 -6 32
-16 -3 -5 5 -4 18 2 14 7 20 15 14 18 -5 4 -3 9 7 13 26 9 42 7 25 -4 -13 -8
-13 -10 2 -10 9 0 21 6 25 13 10 16 68 34 113 36 19 0 55 5 80 11 25 5 119 17
210 26 324 32 312 29 175 38 -97 6 -151 3 -280 -13 -243 -32 -293 -41 -384
-72 -67 -22 -89 -26 -105 -17 -12 6 -16 12 -11 14 6 1 53 14 105 28 52 14 133
30 180 36 47 7 86 13 88 14 6 7 -191 17 -683 36 -286 11 -689 27 -895 35 -499
21 -916 27 -963 15z m-166 -221 c-5 -13 -10 -19 -10 -12 -1 15 10 45 15 40 3
-2 0 -15 -5 -28z m2795 -1310 c3 -6 15 -9 25 -6 10 3 22 1 25 -4 3 -5 -6 -9
-20 -9 -14 0 -28 5 -32 11 -3 6 -15 9 -25 6 -11 -3 -19 -1 -19 4 0 13 37 11
46 -2z m104 -29 c0 -5 -9 -10 -20 -10 -11 0 -20 5 -20 10 0 6 9 10 20 10 11 0
20 -4 20 -10z m53 -17 c-7 -2 -19 -2 -25 0 -7 3 -2 5 12 5 14 0 19 -2 13 -5z
m-1086 -59 c-3 -3 -12 -4 -19 -1 -8 3 -5 6 6 6 11 1 17 -2 13 -5z m63 -4 c0
-5 -10 -10 -22 -9 -22 0 -22 1 -3 9 11 5 21 9 23 9 1 1 2 -3 2 -9z"/>
<path d="M2101 4704 c0 -11 3 -14 6 -6 3 7 2 16 -1 19 -3 4 -6 -2 -5 -13z"/>
<path d="M7420 4584 c0 -10 -13 -58 -29 -109 -17 -51 -35 -123 -42 -161 -7
-38 -14 -71 -15 -73 -2 -2 -18 -7 -36 -11 l-33 -8 40 -2 c147 -7 152 -7 140
17 -5 13 -13 23 -16 23 -7 0 3 61 26 152 24 94 23 92 40 78 9 -7 -3 15 -26 49
-22 33 -43 61 -45 61 -2 0 -4 -7 -4 -16z"/>
<path d="M2171 4574 c0 -11 3 -14 6 -6 3 7 2 16 -1 19 -3 4 -6 -2 -5 -13z"/>
<path d="M9343 4318 c-178 -182 -216 -225 -208 -238 5 -8 12 -7 23 2 13 11 14
11 8 -1 -7 -11 0 -12 35 -7 31 4 38 3 24 -3 -19 -9 -19 -10 3 -10 12 -1 22 4
22 11 0 9 3 9 11 1 22 -22 1 -42 -53 -50 -29 -4 -60 -6 -68 -5 -36 4 69 -35
243 -89 103 -32 190 -59 192 -59 2 0 3 6 0 13 -2 6 -6 41 -10 77 -4 48 -3 61
5 50 16 -21 5 68 -24 212 -28 136 -55 228 -65 228 -5 0 -67 -60 -138 -132z
m165 -23 c17 -57 52 -221 52 -243 0 -23 -13 23 -40 143 -18 77 -38 150 -46
162 -18 28 -18 54 -1 28 8 -11 23 -51 35 -90z"/>
<path d="M7531 4394 c-5 -22 -13 -56 -17 -77 -5 -30 -13 -41 -38 -52 l-31 -14
31 6 c20 3 44 -3 71 -16 54 -29 101 -42 108 -30 4 5 2 9 -4 9 -6 0 -8 7 -5 15
5 13 8 13 21 -1 9 -8 18 -13 20 -10 4 4 -101 156 -138 200 -4 5 -12 -9 -18
-30z m106 -150 c-3 -3 -12 -4 -19 -1 -8 3 -5 6 6 6 11 1 17 -2 13 -5z"/>
<path d="M2578 4413 c7 -3 16 -2 19 1 4 3 -2 6 -13 5 -11 0 -14 -3 -6 -6z"/>
<path d="M8692 4271 c-13 -8 -13 -101 0 -101 7 0 22 99 16 105 -2 2 -9 0 -16
-4z"/>
<path d="M8741 4224 c0 -11 3 -14 6 -6 3 7 2 16 -1 19 -3 4 -6 -2 -5 -13z"/>
<path d="M7170 4194 c0 -8 5 -12 10 -9 6 4 8 11 5 16 -9 14 -15 11 -15 -7z"/>
<path d="M9173 4185 c0 -8 4 -12 9 -9 5 3 6 10 3 15 -9 13 -12 11 -12 -6z"/>
<path d="M7811 4175 c9 -8 262 -96 266 -91 2 2 -52 24 -121 50 -114 42 -158
54 -145 41z"/>
<path d="M8410 4176 c0 -2 8 -10 18 -17 15 -13 16 -12 3 4 -13 16 -21 21 -21
13z"/>
<path d="M7178 4163 c7 -3 16 -2 19 1 4 3 -2 6 -13 5 -11 0 -14 -3 -6 -6z"/>
<path d="M7166 4128 c-3 -13 -5 -59 -4 -103 l1 -80 8 88 c4 49 10 95 13 103 3
8 2 14 -3 14 -5 0 -11 -10 -15 -22z"/>
<path d="M7200 4128 c0 -8 66 -28 93 -28 9 0 26 -5 36 -11 15 -10 17 -19 10
-54 -4 -23 -9 -84 -10 -136 -2 -90 -1 -94 20 -97 19 -3 18 -6 -14 -22 -20 -10
-62 -22 -93 -26 l-57 -7 60 -19 c75 -22 74 -22 68 2 -5 19 -4 19 27 4 17 -9
34 -22 37 -30 3 -8 12 -14 20 -14 8 0 11 5 8 10 -3 6 0 10 7 10 8 0 9 3 3 8
-13 9 -15 30 -22 195 -3 83 -1 142 5 150 5 7 13 26 16 42 l7 30 -111 0 c-60 0
-110 -3 -110 -7z"/>
<path d="M7506 4112 c-9 -26 -45 -39 -57 -21 -8 12 -11 11 -19 -1 -13 -20 -12
-31 3 -29 36 4 37 0 37 -125 0 -100 -3 -126 -16 -137 -13 -10 -17 -10 -24 1
-11 18 -22 8 -15 -13 4 -8 22 -18 42 -22 56 -10 83 -27 90 -54 3 -14 10 -32
16 -38 6 -9 5 -13 -4 -14 -26 -2 56 -18 128 -24 74 -7 107 -1 82 17 -11 7 -11
11 -1 15 21 8 13 33 -10 35 -13 0 13 4 57 8 44 4 84 3 90 -1 14 -14 25 -11 19
5 -8 20 97 32 125 15 21 -14 114 -5 251 22 30 6 65 13 78 15 18 4 22 11 22 44
0 21 5 42 10 45 6 3 10 -1 10 -9 0 -9 5 -16 11 -16 5 0 8 4 4 10 -5 8 71 5
103 -5 19 -7 14 30 -9 59 -13 17 -16 26 -8 26 10 0 10 3 1 12 -9 9 -8 16 5 30
20 22 11 23 -29 2 l-32 -17 17 26 c21 33 21 34 -2 40 -14 3 -23 -3 -32 -24
-14 -35 -11 -39 27 -43 15 -2 30 -9 32 -15 3 -8 -4 -12 -19 -10 -13 2 -29 0
-36 -4 -7 -4 -26 -1 -43 8 -17 9 -39 14 -48 11 -17 -6 -117 23 -376 108 -83
27 -118 34 -148 29 -34 -5 -39 -3 -36 12 4 25 -33 34 -173 42 -112 6 -117 5
-123 -15z m314 -56 c0 -2 -7 -7 -16 -10 -8 -3 -12 -2 -9 4 6 10 25 14 25 6z
m10 -56 c0 -5 -11 -10 -24 -10 -14 0 -28 5 -31 10 -4 6 7 10 24 10 17 0 31 -4
31 -10z m0 -30 c0 -5 -6 -10 -14 -10 -8 0 -18 5 -21 10 -3 6 3 10 14 10 12 0
21 -4 21 -10z m15 -21 c-22 -10 -46 -19 -52 -19 -9 0 -13 -21 -13 -70 0 -38 2
-70 4 -70 17 0 77 33 85 47 10 17 10 17 11 0 0 -12 -15 -25 -42 -37 -67 -30
-68 -29 -68 55 l0 76 43 19 c55 24 84 24 32 -1z m32 -41 c-3 -8 -6 -5 -6 6 -1
11 2 17 5 13 3 -3 4 -12 1 -19z m546 -23 c-3 -9 -8 -14 -10 -11 -3 3 -2 9 2
15 9 16 15 13 8 -4z m-546 -17 c-3 -8 -6 -5 -6 6 -1 11 2 17 5 13 3 -3 4 -12
1 -19z m-17 -88 c-13 -8 -13 -11 -1 -19 7 -5 10 -14 7 -20 -12 -20 -22 -12
-20 17 2 33 1 32 17 32 8 0 7 -4 -3 -10z m-231 -56 c10 -9 -45 -3 -59 6 -11 7
-5 8 20 4 19 -4 37 -8 39 -10z"/>
<path d="M8652 4115 c9 -10 21 -16 28 -13 7 2 -1 10 -16 17 -27 12 -28 11 -12
-4z"/>
<path d="M8130 4060 c8 -5 22 -9 30 -9 10 0 8 3 -5 9 -27 12 -43 12 -25 0z"/>
<path d="M8220 4030 c8 -5 22 -9 30 -9 10 0 8 3 -5 9 -27 12 -43 12 -25 0z"/>
<path d="M9033 3993 c-23 -22 -39 -43 -36 -46 2 -3 21 0 41 7 22 8 45 10 57 5
11 -4 14 -8 8 -8 -17 -1 -16 -40 2 -75 8 -15 15 -47 15 -69 0 -52 -10 -43 -12
11 -1 34 -4 40 -15 30 -10 -8 -11 -14 -3 -22 13 -13 13 -73 -1 -82 -7 -4 -9
-22 -5 -48 6 -37 4 -44 -16 -53 -26 -13 -55 -23 -64 -22 -3 0 -11 -7 -18 -17
-7 -9 -18 -14 -24 -10 -28 17 -8 -13 37 -58 l49 -48 46 10 c36 7 48 7 57 -4 8
-10 35 -14 84 -14 120 0 347 13 338 19 -4 3 -8 75 -8 158 0 119 3 153 13 153
28 0 0 18 -45 29 -154 38 -334 96 -317 102 11 4 23 3 29 -2 11 -11 25 -12 25
-1 0 5 -37 21 -82 37 -45 16 -89 36 -97 44 -15 15 -20 12 -58 -26z"/>
<path d="M8560 3925 c32 -18 41 -18 34 0 -4 8 -18 15 -33 15 l-26 -1 25 -14z"/>
<path d="M8854 3925 c-18 -14 -18 -14 4 -15 15 0 21 4 16 12 -5 8 -2 9 10 5
10 -4 15 -3 11 3 -8 14 -18 13 -41 -5z"/>
<path d="M8654 3918 c-4 -6 -3 -8 4 -4 6 3 14 1 18 -5 3 -6 1 -15 -6 -19 -8
-5 -5 -9 9 -13 24 -6 24 -6 11 27 -10 28 -24 33 -36 14z"/>
<path d="M8768 3919 c9 -12 12 -46 10 -115 l-3 -98 -33 -2 c-22 -1 -39 -10
-53 -28 -11 -14 -27 -26 -35 -26 -8 0 -14 -4 -14 -8 0 -4 9 -8 19 -8 11 0 19
4 18 9 -1 5 4 12 12 15 9 3 11 0 6 -8 -6 -9 -4 -11 4 -6 7 5 10 11 7 14 -7 7
13 32 26 32 6 0 4 -8 -3 -17 -12 -15 -12 -16 1 -8 54 30 60 44 60 146 0 80 -3
99 -17 110 -16 13 -17 12 -5 -2z"/>
<path d="M8545 3900 c3 -5 18 -10 33 -11 26 0 26 -1 5 -9 -13 -5 -23 -12 -23
-15 0 -4 5 -3 10 0 6 3 10 1 10 -4 0 -6 7 -11 15 -11 13 0 17 33 4 43 -11 11
-60 17 -54 7z"/>
<path d="M8460 3830 c0 -5 5 -10 11 -10 5 0 7 5 4 10 -3 6 -8 10 -11 10 -2 0
-4 -4 -4 -10z"/>
<path d="M8420 3778 c0 -35 36 -78 66 -78 13 0 24 -4 24 -10 0 -5 8 -10 17
-10 13 0 14 3 5 12 -9 9 -9 15 2 27 8 9 18 30 22 46 7 28 6 29 -10 15 -16 -13
-20 -12 -33 5 -11 14 -17 16 -20 8 -6 -16 -45 -17 -61 -1 -9 9 -12 6 -12 -14z"/>
<path d="M9592 3710 c-1 -52 -4 -120 -7 -150 -5 -53 -4 -53 5 -15 6 22 9 89 7
150 l-3 110 -2 -95z"/>
<path d="M7164 3733 c1 -29 4 -53 9 -53 4 0 7 -7 7 -15 0 -8 8 -15 18 -15 24
0 133 -35 128 -41 -6 -6 39 -250 57 -310 13 -44 13 -49 -7 -80 -22 -36 -3 -31
24 5 8 12 31 39 52 62 32 35 36 44 29 70 -7 26 -8 27 -18 11 -8 -15 -13 -3
-26 60 -18 89 -29 159 -27 170 2 8 -28 22 -50 22 -9 0 -8 -4 5 -9 19 -8 19 -9
-2 -9 -13 -1 -23 5 -23 12 0 12 -45 28 -122 44 -15 3 -25 9 -22 14 3 5 0 9 -6
9 -6 0 -8 10 -4 25 4 15 2 25 -4 25 -6 0 -13 12 -15 28 -2 15 -4 3 -3 -25z"/>
<path d="M8580 3750 c-10 -6 -10 -8 1 -12 9 -3 7 -10 -9 -26 -13 -13 -17 -22
-9 -22 19 0 57 29 57 44 0 17 -23 27 -40 16z"/>
<path d="M8673 3714 c-19 -41 -19 -44 -3 -29 17 15 35 63 27 71 -2 2 -13 -17
-24 -42z"/>
<path d="M8626 3720 c-10 -17 -13 -30 -6 -30 10 0 34 49 27 56 -2 2 -11 -10
-21 -26z"/>
<path d="M7196 3705 c-3 -8 -1 -15 3 -15 5 0 11 7 15 15 3 8 1 15 -3 15 -5 0
-11 -7 -15 -15z"/>
<path d="M7348 3703 c7 -3 16 -2 19 1 4 3 -2 6 -13 5 -11 0 -14 -3 -6 -6z"/>
<path d="M8801 3684 c0 -11 3 -14 6 -6 3 7 2 16 -1 19 -3 4 -6 -2 -5 -13z"/>
<path d="M8320 3664 c0 -6 5 -15 12 -22 7 -7 9 -12 6 -12 -4 0 -14 7 -22 16
-15 14 -23 14 -89 -1 -101 -23 -467 -124 -486 -135 -9 -5 -56 -49 -105 -98
-74 -75 -87 -92 -78 -108 20 -39 24 -100 8 -114 -24 -19 -19 -40 8 -40 20 0
28 -13 60 -90 21 -49 42 -92 47 -95 5 -4 55 22 111 56 92 56 130 90 346 306
227 227 243 246 237 272 -6 27 -55 85 -55 65z m-460 -178 c0 -3 -15 -14 -32
-26 l-33 -22 28 26 c27 25 37 31 37 22z"/>
<path d="M8075 3636 c-44 -11 -73 -22 -65 -23 8 -2 53 8 100 21 104 30 76 32
-35 2z"/>
<path d="M8590 3649 c-18 -8 -21 -12 -11 -18 8 -6 21 -3 32 7 29 25 23 28 -21
11z"/>
<path d="M7968 3603 c7 -3 16 -2 19 1 4 3 -2 6 -13 5 -11 0 -14 -3 -6 -6z"/>
<path d="M8450 3600 c0 -5 7 -10 15 -10 8 0 15 5 15 10 0 6 -7 10 -15 10 -8 0
-15 -4 -15 -10z"/>
<path d="M7500 3580 c-7 -4 -5 -37 6 -101 9 -52 18 -96 20 -98 4 -4 156 155
162 169 4 9 -175 38 -188 30z"/>
<path d="M7888 3583 c7 -3 16 -2 19 1 4 3 -2 6 -13 5 -11 0 -14 -3 -6 -6z"/>
<path d="M7810 3570 c-20 -6 -21 -8 -5 -8 11 0 31 4 45 8 20 6 21 8 5 8 -11 0
-31 -4 -45 -8z"/>
<path d="M8725 3566 c-18 -7 -25 -15 -18 -19 6 -4 14 -3 18 2 3 6 12 8 19 5 7
-3 19 2 26 11 16 19 -1 20 -45 1z"/>
<path d="M8785 3553 c-18 -14 -18 -15 -2 -9 10 3 23 6 28 6 5 0 9 5 9 10 0 14
-12 12 -35 -7z"/>
<path d="M8640 3550 c-9 -6 -10 -10 -3 -10 6 0 15 5 18 10 8 12 4 12 -15 0z"/>
<path d="M8946 3550 c7 -15 99 -136 117 -155 15 -15 -1 13 -34 60 -33 47 -94
117 -83 95z"/>
<path d="M8572 3541 c-6 -4 -8 -12 -4 -18 5 -8 13 -8 31 1 22 12 23 13 3 18
-11 3 -25 3 -30 -1z"/>
<path d="M8865 3540 c3 -5 11 -10 16 -10 6 0 7 5 4 10 -3 6 -11 10 -16 10 -6
0 -7 -4 -4 -10z"/>
<path d="M8426 3522 c-3 -5 1 -9 9 -9 8 0 15 4 15 9 0 4 -4 8 -9 8 -6 0 -12
-4 -15 -8z"/>
<path d="M8527 3493 c-11 -23 -12 -31 -4 -21 8 10 17 15 20 11 4 -3 9 2 13 11
4 10 2 22 -3 27 -6 6 -16 -5 -26 -28z"/>
<path d="M8741 3521 c-42 -27 -2 -430 52 -532 34 -65 162 -212 298 -344 l124
-120 3 40 c2 22 11 47 21 55 9 8 30 34 45 58 16 23 31 42 33 42 7 0 -16 -37
-52 -84 -22 -28 -34 -55 -33 -71 1 -14 3 -25 3 -25 1 0 17 24 36 53 62 95 119
201 119 221 0 10 -42 78 -94 150 -83 117 -189 271 -209 303 -11 18 19 9 44
-13 27 -22 -72 123 -144 213 -38 48 -52 59 -62 50 -10 -9 -9 -16 2 -34 10 -16
11 -23 4 -23 -9 0 -9 -5 -1 -20 6 -11 15 -20 21 -20 6 0 7 6 3 13 -5 8 -4 9 4
2 9 -8 9 -20 0 -47 -11 -38 -28 -42 -28 -7 0 10 -4 18 -8 17 -10 -3 -62 55
-62 69 0 12 -50 36 -58 28 -3 -2 -11 4 -19 15 -16 22 -22 24 -42 11z m196
-213 c-3 -8 -6 -5 -6 6 -1 11 2 17 5 13 3 -3 4 -12 1 -19z"/>
<path d="M8470 3505 c0 -8 5 -15 10 -15 6 0 10 7 10 15 0 8 -4 15 -10 15 -5 0
-10 -7 -10 -15z"/>
<path d="M9049 3451 c22 -30 24 -31 106 -31 53 0 86 4 91 12 4 7 3 8 -4 4 -18
-11 -14 5 3 18 12 9 -7 12 -82 14 -54 2 -107 6 -117 9 -18 5 -17 3 3 -26z"/>
<path d="M8670 3450 c0 -6 -5 -8 -11 -4 -7 4 -9 0 -6 -12 4 -11 9 -32 13 -47
5 -21 9 -25 15 -15 12 18 11 75 -1 83 -5 3 -10 1 -10 -5z"/>
<path d="M8434 3438 c4 -20 26 -21 26 -1 0 14 -2 15 -9 4 -6 -9 -10 -10 -14
-2 -4 8 -5 8 -3 -1z"/>
<path d="M9400 3438 c-74 -6 -137 -12 -140 -15 -3 -2 -4 -48 -2 -101 1 -54 0
-109 -4 -124 -5 -25 -8 -27 -26 -17 -20 11 -20 10 1 -20 13 -17 27 -28 33 -25
7 4 8 2 4 -4 -8 -13 160 -237 177 -237 29 0 143 438 135 518 -4 38 2 38 -178
25z m136 -175 c-26 -101 -54 -187 -55 -167 -1 6 5 29 12 50 8 22 25 91 38 154
13 64 25 103 27 88 2 -14 -8 -71 -22 -125z m-86 -356 c0 -5 -4 -5 -10 -2 -5 3
-10 14 -10 23 0 15 2 15 10 2 5 -8 10 -19 10 -23z"/>
<path d="M8480 3419 c-13 -17 -19 -18 -46 -8 -27 11 -34 9 -60 -10 -16 -12
-49 -46 -74 -76 -25 -30 -50 -52 -57 -50 -7 2 -10 -2 -7 -8 2 -7 -10 -21 -28
-32 -58 -33 -118 -96 -116 -121 2 -17 5 -20 15 -12 10 8 13 5 13 -11 0 -19 10
-26 32 -22 4 0 5 -6 1 -15 -4 -11 -8 -12 -13 -4 -4 6 -7 -2 -7 -19 l0 -29 31
36 c17 19 39 44 49 54 20 21 22 32 5 22 -9 -5 -9 -3 1 9 7 9 17 14 22 11 5 -3
12 2 15 10 3 9 11 16 16 16 6 0 -6 -19 -26 -42 -20 -24 -54 -69 -76 -101 -21
-32 -42 -57 -45 -57 -4 1 -10 -2 -13 -6 -4 -4 -1 -4 6 0 16 9 16 7 -10 -59
-12 -32 -24 -51 -28 -45 -5 7 -9 4 -13 -9 -3 -12 -1 -19 4 -15 12 7 12 5 -15
-90 -33 -113 -56 -225 -49 -242 3 -8 15 -14 28 -14 12 0 42 -13 66 -30 24 -16
49 -30 54 -30 6 0 31 60 57 133 159 454 230 653 261 732 41 107 52 155 34 155
-6 -1 -19 -10 -27 -21z m-140 -202 c0 -2 -12 -14 -27 -28 l-28 -24 24 28 c23
25 31 32 31 24z"/>
<path d="M17728 3433 c7 -3 16 -2 19 1 4 3 -2 6 -13 5 -11 0 -14 -3 -6 -6z"/>
<path d="M7457 3222 c-32 -33 -36 -42 -31 -70 4 -18 11 -32 16 -32 5 0 7 -4 4
-9 -6 -9 68 -186 86 -209 8 -9 6 -18 -8 -33 -17 -19 -17 -20 1 -13 10 4 40 21
65 38 42 28 46 33 37 54 -6 13 -15 21 -22 19 -12 -5 -82 140 -72 149 3 3 -5
34 -18 69 -13 34 -21 65 -18 69 4 3 4 6 2 6 -3 0 -22 -17 -42 -38z"/>
<path d="M9180 3232 c20 -30 41 -35 39 -9 0 8 -3 7 -6 -2 -4 -9 -12 -5 -30 15
l-25 29 22 -33z"/>
<path d="M8673 3235 c-7 -7 -15 -25 -19 -40 -4 -15 -13 -29 -20 -32 -7 -3 -34
-39 -60 -81 -67 -111 -134 -209 -135 -197 0 6 -5 -1 -10 -14 -8 -20 -4 -28 26
-54 36 -30 36 -31 30 -91 -4 -34 -8 -77 -9 -96 -2 -19 -6 -48 -10 -65 -6 -24
-5 -27 4 -15 9 12 10 11 5 -7 -9 -32 78 -383 94 -383 4 0 14 11 21 25 26 48
34 23 15 -42 -2 -6 15 2 39 18 23 17 49 32 57 33 8 2 27 8 42 14 16 7 33 12
38 12 11 0 12 -14 -7 148 -9 75 -17 193 -17 262 -1 69 -6 129 -12 133 -6 6 -6
10 3 14 7 3 12 26 12 63 0 51 3 58 21 63 17 4 19 3 10 -6 -6 -6 -11 -36 -10
-67 0 -46 2 -51 10 -31 5 14 7 31 4 38 -7 20 15 5 45 -31 41 -48 42 -53 20
-124 -33 -114 -24 -166 29 -156 29 6 30 5 36 -42 11 -77 14 -84 43 -85 24 0
25 -1 7 -9 -16 -7 -26 -2 -46 21 -32 37 -43 36 -66 -1 -18 -32 -37 -39 -47
-17 -7 15 4 -150 11 -170 3 -8 14 6 29 37 13 27 26 50 30 50 3 0 4 -7 0 -15
-6 -17 0 -19 17 -5 7 6 31 24 55 40 29 21 42 37 42 54 0 13 7 27 16 30 24 9
29 7 16 -6 -7 -7 -12 -17 -12 -24 0 -6 18 5 40 25 22 20 39 39 37 42 -1 4 6
16 17 28 18 20 18 21 -91 138 -131 140 -213 248 -212 277 1 20 1 20 7 -2 4
-13 11 -23 17 -22 5 1 12 -6 15 -16 4 -10 9 -13 12 -8 3 5 -19 42 -49 83 -29
40 -53 68 -53 62 0 -7 -5 -9 -11 -5 -8 4 -9 -3 -3 -27 7 -35 7 -110 -2 -118
-2 -2 -4 11 -4 30 0 19 -9 95 -21 169 -32 208 -32 210 -46 195z m74 -427 c-3
-8 -6 -5 -6 6 -1 11 2 17 5 13 3 -3 4 -12 1 -19z m-4 -522 c3 -8 0 -19 -7 -26
-10 -8 -15 -7 -20 6 -3 8 -6 20 -6 25 0 15 27 10 33 -5z"/>
<path d="M7854 2994 c-48 -28 -59 -40 -60 -62 -3 -45 -22 -82 -49 -92 -28 -11
-35 -42 -7 -39 32 3 37 -1 62 -41 14 -22 27 -40 30 -40 3 0 14 33 24 73 10 39
29 107 43 150 13 44 23 81 21 83 -2 2 -31 -12 -64 -32z"/>
<path d="M7659 2880 c-58 -35 -66 -43 -61 -65 2 -14 11 -25 21 -25 13 0 14 -2
2 -9 -17 -11 -1 -38 108 -185 l66 -90 7 40 c11 63 9 78 -15 105 -12 15 -40 49
-62 77 -24 31 -50 52 -65 55 l-25 4 27 2 c26 1 42 28 51 86 1 11 6 26 10 33
11 17 9 16 -64 -28z m26 -49 c3 -5 2 -12 -3 -15 -5 -3 -9 1 -9 9 0 17 3 19 12
6z"/>
<path d="M8087 2903 c-4 -3 -7 -13 -7 -22 1 -13 3 -13 11 2 11 19 8 33 -4 20z"/>
<path d="M7521 2795 c-73 -46 -73 -48 -6 -25 54 19 74 33 75 53 0 13 -14 7
-69 -28z"/>
<path d="M8376 2676 c6 -56 5 -59 -15 -53 -18 4 -21 1 -21 -28 0 -19 4 -36 9
-39 19 -12 19 -111 -1 -174 -11 -35 -18 -65 -16 -66 2 -1 36 -7 76 -12 71 -10
73 -9 69 11 -3 11 -23 90 -45 175 -21 85 -44 175 -50 200 l-11 45 5 -59z"/>
<path d="M10550 2570 c0 -5 5 -10 10 -10 6 0 10 5 10 10 0 6 -4 10 -10 10 -5
0 -10 -4 -10 -10z"/>
<path d="M10508 2553 c7 -3 16 -2 19 1 4 3 -2 6 -13 5 -11 0 -14 -3 -6 -6z"/>
<path d="M9120 2475 c-7 -8 -8 -15 -2 -15 5 0 15 7 22 15 7 8 8 15 2 15 -5 0
-15 -7 -22 -15z"/>
<path d="M8270 2429 c0 -7 -3 -9 -6 -6 -4 4 -15 -3 -26 -15 -15 -18 -19 -51
-8 -78 2 -3 3 -21 4 -40 1 -32 4 -36 36 -41 21 -4 26 -7 13 -8 -38 -2 -26 -19
18 -26 45 -8 71 10 46 30 -7 6 -11 18 -9 28 2 10 -4 27 -13 37 -9 10 -14 24
-10 29 3 6 2 11 -4 11 -5 0 -12 18 -16 40 -6 37 -25 66 -25 39z"/>
<path d="M7925 2400 c8 -13 109 -81 153 -104 31 -16 33 -16 38 1 3 10 9 26 14
35 8 13 0 23 -40 47 -42 26 -61 31 -111 31 -38 0 -58 -4 -54 -10z m180 -58
c-3 -3 -11 0 -18 7 -9 10 -8 11 6 5 10 -3 15 -9 12 -12z"/>
<path d="M7836 2323 c-15 -15 202 -147 231 -141 13 3 6 10 -26 27 -24 12 -73
42 -110 65 -91 58 -87 56 -95 49z"/>
<path d="M8415 2229 c4 -6 9 -8 12 -6 2 3 20 1 39 -3 18 -4 34 -4 34 0 0 4
-14 10 -31 14 -45 9 -61 7 -54 -5z"/>
<path d="M8415 2200 c-4 -6 7 -10 27 -9 27 0 30 2 13 9 -27 12 -33 12 -40 0z"/>
</g>
</svg>
